<?xml version="1.0" encoding="UTF-8"?>
<!DOCTYPE svg PUBLIC "-//W3C//DTD SVG 1.1//EN" "http://www.w3.org/Graphics/SVG/1.1/DTD/svg11.dtd">
<svg xmlns="http://www.w3.org/2000/svg" version="1.1" width="626px" height="626px" style="shape-rendering:geometricPrecision; text-rendering:geometricPrecision; image-rendering:optimizeQuality; fill-rule:evenodd; clip-rule:evenodd" xmlns:xlink="http://www.w3.org/1999/xlink">
<g><path style="opacity:1" fill="#fefefe" d="M -0.5,-0.5 C 208.167,-0.5 416.833,-0.5 625.5,-0.5C 625.5,208.167 625.5,416.833 625.5,625.5C 416.833,625.5 208.167,625.5 -0.5,625.5C -0.5,416.833 -0.5,208.167 -0.5,-0.5 Z"/></g>
<g><path style="opacity:1" fill="#ce6b1a" d="M 332.5,165.5 C 340.213,166.028 341.379,169.028 336,174.5C 333.121,173.091 331.455,170.757 331,167.5C 330.517,168.448 330.351,169.448 330.5,170.5C 329.833,170.5 329.167,170.5 328.5,170.5C 329.234,169.292 329.567,167.959 329.5,166.5C 330.609,166.443 331.609,166.11 332.5,165.5 Z"/></g>
<g><path style="opacity:1" fill="#fdfcfa" d="M 328.5,170.5 C 329.167,170.5 329.833,170.5 330.5,170.5C 331.302,175.341 333.969,176.675 338.5,174.5C 339.277,176.781 340.277,178.948 341.5,181C 343.577,181.192 345.577,181.692 347.5,182.5C 345.256,187.327 346.589,190.494 351.5,192C 347.554,195.46 347.554,198.96 351.5,202.5C 347.037,205.023 346.371,208.356 349.5,212.5C 347.681,213.32 346.014,214.32 344.5,215.5C 338.213,217.159 331.879,218.992 325.5,221C 320.622,224.503 316.122,228.336 312,232.5C 308.085,230.423 304.585,227.756 301.5,224.5C 297.512,223.354 293.845,221.521 290.5,219C 286.623,218.743 282.957,217.743 279.5,216C 251.528,214.737 223.528,214.07 195.5,214C 193.942,213.79 192.609,213.29 191.5,212.5C 191.5,211.833 191.5,211.167 191.5,210.5C 192.167,209.5 192.833,208.5 193.5,207.5C 198.639,209.598 201.972,207.931 203.5,202.5C 205.193,204.279 207.193,204.779 209.5,204C 211.491,202.842 213.158,201.342 214.5,199.5C 219.55,202.645 222.883,201.312 224.5,195.5C 228.152,200.653 231.985,200.653 236,195.5C 240.026,199.631 243.693,199.298 247,194.5C 250.303,199.462 254.136,199.795 258.5,195.5C 262.25,199.472 266.083,199.472 270,195.5C 274.833,199.703 279,199.036 282.5,193.5C 288.548,195.952 292.048,193.952 293,187.5C 298.864,188.465 301.364,185.798 300.5,179.5C 302.591,179.682 304.591,179.348 306.5,178.5C 307.518,176.406 308.518,174.406 309.5,172.5C 309.833,172.5 310.167,172.5 310.5,172.5C 314.22,174.43 316.887,173.43 318.5,169.5C 320.063,171.402 322.063,172.402 324.5,172.5C 326.355,172.66 327.688,171.993 328.5,170.5 Z"/></g>
<g><path style="opacity:1" fill="#d8aa91" d="M 297.5,175.5 C 297.833,175.5 298.167,175.5 298.5,175.5C 297.198,177.028 295.531,178.028 293.5,178.5C 292.833,178.5 292.167,178.5 291.5,178.5C 293.249,177.015 295.249,176.015 297.5,175.5 Z"/></g>
<g><path style="opacity:1" fill="#a8551c" d="M 332.5,165.5 C 337.899,163.707 340.899,165.707 341.5,171.5C 343.735,171.205 345.735,171.539 347.5,172.5C 344.143,172.106 341.81,173.439 340.5,176.5C 341.97,180.934 344.47,181.601 348,178.5C 348.495,176.527 348.662,174.527 348.5,172.5C 350.745,174.417 351.078,176.75 349.5,179.5C 351.108,180.318 352.775,180.985 354.5,181.5C 355.298,181.957 355.631,182.624 355.5,183.5C 356.831,186.061 356.498,188.561 354.5,191C 355.942,191.377 356.942,192.21 357.5,193.5C 350.558,192.288 348.891,194.788 352.5,201C 354.134,201.494 355.801,201.66 357.5,201.5C 357.389,202.117 357.056,202.617 356.5,203C 358.113,205.228 358.78,207.728 358.5,210.5C 358.167,210.5 357.833,210.5 357.5,210.5C 357.586,211.496 357.252,212.329 356.5,213C 355.062,213.219 353.729,213.719 352.5,214.5C 356.147,220.539 354.481,223.872 347.5,224.5C 349,231.33 346.333,234.33 339.5,233.5C 340.181,240.023 337.181,242.69 330.5,241.5C 329.978,247.259 326.978,249.259 321.5,247.5C 320.818,248.243 320.151,248.909 319.5,249.5C 319.762,248.022 319.429,246.689 318.5,245.5C 316.253,244.626 313.92,244.292 311.5,244.5C 313.708,242.065 316.208,242.065 319,244.5C 319.107,238.052 322.107,236.052 328,238.5C 328.127,232.219 331.293,229.885 337.5,231.5C 335.762,225.073 338.095,222.406 344.5,223.5C 343.47,220.771 343.47,218.104 344.5,215.5C 346.014,214.32 347.681,213.32 349.5,212.5C 346.371,208.356 347.037,205.023 351.5,202.5C 347.554,198.96 347.554,195.46 351.5,192C 346.589,190.494 345.256,187.327 347.5,182.5C 345.577,181.692 343.577,181.192 341.5,181C 340.277,178.948 339.277,176.781 338.5,174.5C 333.969,176.675 331.302,175.341 330.5,170.5C 330.351,169.448 330.517,168.448 331,167.5C 331.455,170.757 333.121,173.091 336,174.5C 341.379,169.028 340.213,166.028 332.5,165.5 Z"/></g>
<g><path style="opacity:1" fill="#d06b16" d="M 347.5,172.5 C 347.833,172.5 348.167,172.5 348.5,172.5C 348.662,174.527 348.495,176.527 348,178.5C 344.47,181.601 341.97,180.934 340.5,176.5C 341.81,173.439 344.143,172.106 347.5,172.5 Z"/></g>
<g><path style="opacity:1" fill="#d86f1b" d="M 355.5,183.5 C 355.985,188.159 354.152,189.492 350,187.5C 349.506,185.866 349.34,184.199 349.5,182.5C 351.621,182.325 353.621,182.659 355.5,183.5 Z"/></g>
<g><path style="opacity:1" fill="#a3531f" d="M 327.5,163.5 C 328.906,163.973 329.573,164.973 329.5,166.5C 329.567,167.959 329.234,169.292 328.5,170.5C 327.688,171.993 326.355,172.66 324.5,172.5C 322.063,172.402 320.063,171.402 318.5,169.5C 316.887,173.43 314.22,174.43 310.5,172.5C 315.659,172.864 317.492,170.53 316,165.5C 309.598,163.737 307.431,166.071 309.5,172.5C 308.518,174.406 307.518,176.406 306.5,178.5C 304.591,179.348 302.591,179.682 300.5,179.5C 301.364,185.798 298.864,188.465 293,187.5C 292.048,193.952 288.548,195.952 282.5,193.5C 279,199.036 274.833,199.703 270,195.5C 266.083,199.472 262.25,199.472 258.5,195.5C 254.136,199.795 250.303,199.462 247,194.5C 243.693,199.298 240.026,199.631 236,195.5C 231.985,200.653 228.152,200.653 224.5,195.5C 222.883,201.312 219.55,202.645 214.5,199.5C 213.158,201.342 211.491,202.842 209.5,204C 207.193,204.779 205.193,204.279 203.5,202.5C 201.972,207.931 198.639,209.598 193.5,207.5C 192.697,206.577 192.53,205.577 193,204.5C 196.427,206.286 198.927,205.452 200.5,202C 199.571,199.091 197.571,197.925 194.5,198.5C 196.938,197.114 199.271,197.447 201.5,199.5C 203.305,193.281 206.972,191.948 212.5,195.5C 214.131,190.749 217.131,189.416 221.5,191.5C 222.458,191.953 223.292,192.619 224,193.5C 226.769,187.621 230.602,186.954 235.5,191.5C 237.335,187.752 240.002,186.752 243.5,188.5C 245.411,188.574 246.578,189.574 247,191.5C 250.827,186.235 254.66,186.235 258.5,191.5C 260.795,188.61 263.795,187.777 267.5,189C 268.047,189.925 268.713,190.758 269.5,191.5C 271.335,187.752 274.002,186.752 277.5,188.5C 273.491,188.014 271.658,189.68 272,193.5C 273.427,195.787 275.261,196.12 277.5,194.5C 278.466,192.604 278.799,190.604 278.5,188.5C 279.15,188.804 279.817,189.137 280.5,189.5C 281.244,188.009 281.91,186.509 282.5,185C 285.099,184.231 287.599,184.398 290,185.5C 290.29,183.08 290.79,180.746 291.5,178.5C 292.167,178.5 292.833,178.5 293.5,178.5C 295.531,178.028 297.198,177.028 298.5,175.5C 298.167,175.5 297.833,175.5 297.5,175.5C 297.843,169.488 300.843,167.488 306.5,169.5C 308.68,163.173 312.68,161.84 318.5,165.5C 321.001,162.43 324.001,161.764 327.5,163.5 Z"/></g>
<g><path style="opacity:1" fill="#d67016" d="M 243.5,188.5 C 245.346,193.647 243.679,195.647 238.5,194.5C 237.114,190.206 238.78,188.206 243.5,188.5 Z"/></g>
<g><path style="opacity:1" fill="#d16d17" d="M 262.5,189.5 C 264.144,189.286 265.644,189.62 267,190.5C 267.495,192.473 267.662,194.473 267.5,196.5C 260.552,197.574 258.885,195.241 262.5,189.5 Z"/></g>
<g><path style="opacity:1" fill="#d36f16" d="M 250.5,189.5 C 252.288,189.215 253.955,189.548 255.5,190.5C 256.205,194.933 254.205,196.433 249.5,195C 248.243,192.924 248.576,191.09 250.5,189.5 Z"/></g>
<g><path style="opacity:1" fill="#d06a17" d="M 284.5,185.5 C 287.965,185.351 289.965,187.018 290.5,190.5C 288.401,193.984 285.901,194.318 283,191.5C 282.252,189.16 282.752,187.16 284.5,185.5 Z"/></g>
<g><path style="opacity:1" fill="#d67118" d="M 293.5,178.5 C 296.541,178.406 298.207,179.906 298.5,183C 296.404,185.913 294.238,186.08 292,183.5C 291.387,181.505 291.887,179.838 293.5,178.5 Z"/></g>
<g><path style="opacity:1" fill="#d06b17" d="M 298.5,175.5 C 298.991,170.987 301.324,169.32 305.5,170.5C 306.474,172.743 306.808,175.076 306.5,177.5C 303.579,177.717 300.913,177.051 298.5,175.5 Z"/></g>
<g><path style="opacity:1" fill="#cf6b15" d="M 310.5,172.5 C 310.167,172.5 309.833,172.5 309.5,172.5C 307.431,166.071 309.598,163.737 316,165.5C 317.492,170.53 315.659,172.864 310.5,172.5 Z"/></g>
<g><path style="opacity:1" fill="#d5701a" d="M 327.5,163.5 C 328.508,168.712 326.508,170.878 321.5,170C 320.017,164.974 322.017,162.807 327.5,163.5 Z"/></g>
<g><path style="opacity:1" fill="#d27018" d="M 277.5,188.5 C 277.833,188.5 278.167,188.5 278.5,188.5C 278.799,190.604 278.466,192.604 277.5,194.5C 275.261,196.12 273.427,195.787 272,193.5C 271.658,189.68 273.491,188.014 277.5,188.5 Z"/></g>
<g><path style="opacity:1" fill="#d46e17" d="M 227.5,189.5 C 232.22,189.206 233.886,191.206 232.5,195.5C 226.329,197.004 224.662,195.004 227.5,189.5 Z"/></g>
<g><path style="opacity:1" fill="#cf6814" d="M 205.5,194.5 C 210.708,194.369 212.375,196.702 210.5,201.5C 206.631,203.425 204.298,202.258 203.5,198C 203.978,196.697 204.645,195.531 205.5,194.5 Z"/></g>
<g><path style="opacity:1" fill="#d26f17" d="M 221.5,191.5 C 222.105,196.545 220.105,198.879 215.5,198.5C 214.027,193.301 216.027,190.968 221.5,191.5 Z"/></g>
<g><path style="opacity:1" fill="#c26118" d="M 357.5,193.5 C 360.004,195.962 360.004,198.629 357.5,201.5C 355.801,201.66 354.134,201.494 352.5,201C 348.891,194.788 350.558,192.288 357.5,193.5 Z"/></g>
<g><path style="opacity:1" fill="#c36b22" d="M 194.5,198.5 C 197.571,197.925 199.571,199.091 200.5,202C 198.927,205.452 196.427,206.286 193,204.5C 192.53,205.577 192.697,206.577 193.5,207.5C 192.833,208.5 192.167,209.5 191.5,210.5C 191.834,207.812 191.168,205.479 189.5,203.5C 191,201.778 192.667,200.112 194.5,198.5 Z"/></g>
<g><path style="opacity:1" fill="#fde7d0" d="M 175.5,209.5 C 175.5,209.833 175.5,210.167 175.5,210.5C 174.504,210.414 173.671,210.748 173,211.5C 172.505,213.473 172.338,215.473 172.5,217.5C 169.813,217.336 167.146,217.503 164.5,218C 163.565,220.381 163.232,222.881 163.5,225.5C 162.167,225.5 160.833,225.5 159.5,225.5C 159.631,224.761 159.464,224.094 159,223.5C 150.469,231.697 142.302,240.197 134.5,249C 141.473,243.036 148.307,236.536 155,229.5C 155.21,231.058 155.71,232.391 156.5,233.5C 154.993,234.975 153.327,236.309 151.5,237.5C 148.86,239.879 148.86,242.379 151.5,245C 149.934,245.608 148.6,246.442 147.5,247.5C 145.247,249.45 144.914,251.784 146.5,254.5C 145.167,256.833 143.833,259.167 142.5,261.5C 141.258,262.043 139.925,262.377 138.5,262.5C 125.01,258.802 111.344,256.135 97.5,254.5C 101.093,250.168 105.427,246.501 110.5,243.5C 112.833,241 115.167,238.5 117.5,236C 130.684,227.819 143.018,218.486 154.5,208C 157.5,207.333 160.5,207.333 163.5,208C 167.24,210.523 171.24,211.023 175.5,209.5 Z"/></g>
<g><path style="opacity:1" fill="#d16d18" d="M 357.5,210.5 C 354.432,213.4 351.765,213.067 349.5,209.5C 351.003,205.838 353.503,204.838 357,206.5C 357.49,207.793 357.657,209.127 357.5,210.5 Z"/></g>
<g><path style="opacity:1" fill="#a55016" d="M 189.5,203.5 C 191.168,205.479 191.834,207.812 191.5,210.5C 191.5,211.167 191.5,211.833 191.5,212.5C 189.283,213.369 186.95,213.702 184.5,213.5C 184.44,212.957 184.107,212.624 183.5,212.5C 182.725,214.843 182.058,217.177 181.5,219.5C 179.283,220.369 176.95,220.702 174.5,220.5C 174.951,226.382 172.284,228.716 166.5,227.5C 166.663,229.857 166.497,232.19 166,234.5C 163.948,235.723 161.781,236.723 159.5,237.5C 161.631,242.559 159.964,245.726 154.5,247C 155.435,249.381 155.768,251.881 155.5,254.5C 154.833,254.833 154.167,255.167 153.5,255.5C 152.357,255.908 151.357,256.575 150.5,257.5C 152.634,260.074 152.968,262.741 151.5,265.5C 151.946,262.99 151.28,260.99 149.5,259.5C 145.223,258.095 143.223,259.761 143.5,264.5C 143.5,264.833 143.5,265.167 143.5,265.5C 142.566,264.432 142.232,263.099 142.5,261.5C 143.833,259.167 145.167,256.833 146.5,254.5C 153.19,255.669 154.857,253.503 151.5,248C 150.207,247.51 148.873,247.343 147.5,247.5C 148.6,246.442 149.934,245.608 151.5,245C 148.86,242.379 148.86,239.879 151.5,237.5C 153.327,236.309 154.993,234.975 156.5,233.5C 156.216,231.585 156.549,229.919 157.5,228.5C 158.167,227.5 158.833,226.5 159.5,225.5C 160.833,225.5 162.167,225.5 163.5,225.5C 163.232,222.881 163.565,220.381 164.5,218C 167.146,217.503 169.813,217.336 172.5,217.5C 172.338,215.473 172.505,213.473 173,211.5C 173.671,210.748 174.504,210.414 175.5,210.5C 175.5,210.167 175.5,209.833 175.5,209.5C 177.262,209.357 178.929,209.691 180.5,210.5C 180.876,204.79 183.876,202.457 189.5,203.5 Z"/></g>
<g><path style="opacity:1" fill="#d36d16" d="M 175.5,210.5 C 180.262,211.092 181.596,213.592 179.5,218C 173.403,218.147 172.07,215.647 175.5,210.5 Z"/></g>
<g><path style="opacity:1" fill="#d66f19" d="M 184.5,204.5 C 189.747,204.64 190.747,206.806 187.5,211C 182.382,210.824 181.382,208.658 184.5,204.5 Z"/></g>
<g><path style="opacity:1" fill="#d67117" d="M 347.5,216.5 C 349.435,217.15 351.435,217.483 353.5,217.5C 353.648,220.352 352.314,222.019 349.5,222.5C 346.625,221.207 345.958,219.207 347.5,216.5 Z"/></g>
<g><path style="opacity:1" fill="#fde7d0" d="M 191.5,212.5 C 192.609,213.29 193.942,213.79 195.5,214C 223.528,214.07 251.528,214.737 279.5,216C 282.957,217.743 286.623,218.743 290.5,219C 293.845,221.521 297.512,223.354 301.5,224.5C 304.585,227.756 308.085,230.423 312,232.5C 316.122,228.336 320.622,224.503 325.5,221C 331.879,218.992 338.213,217.159 344.5,215.5C 343.47,218.104 343.47,220.771 344.5,223.5C 338.095,222.406 335.762,225.073 337.5,231.5C 331.293,229.885 328.127,232.219 328,238.5C 322.107,236.052 319.107,238.052 319,244.5C 316.208,242.065 313.708,242.065 311.5,244.5C 310.057,245.335 309.057,246.668 308.5,248.5C 303.019,246.101 299.519,247.768 298,253.5C 293.223,250.341 289.556,251.341 287,256.5C 282.064,254.266 278.564,255.599 276.5,260.5C 270.893,256.877 267.226,258.211 265.5,264.5C 260.237,261.096 256.57,262.429 254.5,268.5C 251.802,267.176 249.136,267.176 246.5,268.5C 216.556,268.216 186.889,264.716 157.5,258C 156.027,257.29 155.36,256.124 155.5,254.5C 155.768,251.881 155.435,249.381 154.5,247C 159.964,245.726 161.631,242.559 159.5,237.5C 161.781,236.723 163.948,235.723 166,234.5C 166.497,232.19 166.663,229.857 166.5,227.5C 172.284,228.716 174.951,226.382 174.5,220.5C 176.95,220.702 179.283,220.369 181.5,219.5C 208.815,220.785 236.148,221.618 263.5,222C 268.792,223.328 274.126,223.995 279.5,224C 271.676,221.635 263.676,220.302 255.5,220C 231.496,219.577 207.496,219.077 183.5,218.5C 183.216,216.585 183.549,214.919 184.5,213.5C 186.95,213.702 189.283,213.369 191.5,212.5 Z"/></g>
<g><path style="opacity:1" fill="#e7c8ac" d="M 184.5,213.5 C 183.549,214.919 183.216,216.585 183.5,218.5C 207.496,219.077 231.496,219.577 255.5,220C 263.676,220.302 271.676,221.635 279.5,224C 274.126,223.995 268.792,223.328 263.5,222C 236.148,221.618 208.815,220.785 181.5,219.5C 182.058,217.177 182.725,214.843 183.5,212.5C 184.107,212.624 184.44,212.957 184.5,213.5 Z"/></g>
<g><path style="opacity:1" fill="#f4e1c8" d="M 527.5,255.5 C 522.125,255.172 516.792,255.505 511.5,256.5C 495.725,260.963 479.725,264.463 463.5,267C 436.902,270.159 410.235,273.159 383.5,276C 377.087,278.536 370.421,279.869 363.5,280C 351.008,284.307 339.175,289.807 328,296.5C 321.573,301.985 316.573,308.652 313,316.5C 311.375,317.412 310.541,316.745 310.5,314.5C 311.474,296.495 311.807,278.495 311.5,260.5C 310.332,258.783 308.665,258.116 306.5,258.5C 307.167,257.5 307.833,256.5 308.5,255.5C 309.158,254.602 309.824,253.602 310.5,252.5C 313.567,254.096 316.234,253.763 318.5,251.5C 319.338,251.158 319.672,250.492 319.5,249.5C 320.151,248.909 320.818,248.243 321.5,247.5C 326.978,249.259 329.978,247.259 330.5,241.5C 337.181,242.69 340.181,240.023 339.5,233.5C 346.333,234.33 349,231.33 347.5,224.5C 354.481,223.872 356.147,220.539 352.5,214.5C 353.729,213.719 355.062,213.219 356.5,213C 357.252,212.329 357.586,211.496 357.5,210.5C 357.833,210.5 358.167,210.5 358.5,210.5C 358.5,211.833 358.5,213.167 358.5,214.5C 382.836,214.667 407.169,214.5 431.5,214C 438.035,212.349 444.702,211.349 451.5,211C 454.637,210.399 457.637,209.399 460.5,208C 463.167,207.333 465.833,207.333 468.5,208C 486.514,222.423 504.514,236.756 522.5,251C 524.025,252.009 525.692,252.509 527.5,252.5C 527.5,253.5 527.5,254.5 527.5,255.5 Z"/></g>
<g><path style="opacity:1" fill="#d46e18" d="M 166.5,218.5 C 168.144,218.286 169.644,218.62 171,219.5C 171.495,221.473 171.662,223.473 171.5,225.5C 165.238,225.944 163.571,223.611 166.5,218.5 Z"/></g>
<g><path style="opacity:1" fill="#e0bea3" d="M 159.5,225.5 C 158.833,226.5 158.167,227.5 157.5,228.5C 156.549,229.919 156.216,231.585 156.5,233.5C 155.71,232.391 155.21,231.058 155,229.5C 148.307,236.536 141.473,243.036 134.5,249C 142.302,240.197 150.469,231.697 159,223.5C 159.464,224.094 159.631,224.761 159.5,225.5 Z"/></g>
<g><path style="opacity:1" fill="#d26a15" d="M 340.5,224.5 C 342.5,224.5 344.5,224.5 346.5,224.5C 346.662,226.527 346.495,228.527 346,230.5C 345.261,231.574 344.261,232.241 343,232.5C 338.835,230.57 338.002,227.903 340.5,224.5 Z"/></g>
<g><path style="opacity:1" fill="#d16f18" d="M 157.5,228.5 C 162.834,226.074 165.167,227.741 164.5,233.5C 159.725,235.402 157.392,233.735 157.5,228.5 Z"/></g>
<g><path style="opacity:1" fill="#d47017" d="M 333.5,233.5 C 334.833,233.5 336.167,233.5 337.5,233.5C 338.112,236.881 336.946,239.214 334,240.5C 331.019,238.28 330.852,235.947 333.5,233.5 Z"/></g>
<g><path style="opacity:1" fill="#d26f17" d="M 151.5,237.5 C 156.612,235.617 158.612,237.284 157.5,242.5C 152.192,245.549 150.192,243.882 151.5,237.5 Z"/></g>
<g><path style="opacity:1" fill="#cc6913" d="M 311.5,244.5 C 313.92,244.292 316.253,244.626 318.5,245.5C 319.429,246.689 319.762,248.022 319.5,249.5C 319.672,250.492 319.338,251.158 318.5,251.5C 312.5,252.833 310.167,250.5 311.5,244.5 Z"/></g>
<g><path style="opacity:1" fill="#ce6c18" d="M 147.5,247.5 C 148.873,247.343 150.207,247.51 151.5,248C 154.857,253.503 153.19,255.669 146.5,254.5C 144.914,251.784 145.247,249.45 147.5,247.5 Z"/></g>
<g><path style="opacity:1" fill="#d57118" d="M 149.5,259.5 C 150.655,264.671 148.655,266.338 143.5,264.5C 143.223,259.761 145.223,258.095 149.5,259.5 Z"/></g>
<g><path style="opacity:1" fill="#fec792" d="M 527.5,255.5 C 527.796,257.403 528.463,259.07 529.5,260.5C 529.014,262.807 529.014,264.973 529.5,267C 505.888,278.315 481.221,286.649 455.5,292C 420.234,297.484 385.567,305.484 351.5,316C 341.927,319.786 332.593,324.12 323.5,329C 318.495,332.856 314.828,337.69 312.5,343.5C 307.906,333.453 300.906,325.62 291.5,320C 282.823,316.327 274.157,312.661 265.5,309C 252.072,305.384 238.739,301.884 225.5,298.5C 226.458,298.047 227.292,297.381 228,296.5C 228.497,294.19 228.663,291.857 228.5,289.5C 230.527,289.662 232.527,289.495 234.5,289C 235.056,288.617 235.389,288.117 235.5,287.5C 236.163,285.958 236.83,284.291 237.5,282.5C 243.091,284.593 246.091,282.593 246.5,276.5C 248.747,277.374 251.08,277.708 253.5,277.5C 260.139,281.183 267.472,283.683 275.5,285C 280.46,288.465 285.793,291.465 291.5,294C 299.314,299.549 305.647,306.382 310.5,314.5C 310.541,316.745 311.375,317.412 313,316.5C 316.573,308.652 321.573,301.985 328,296.5C 339.175,289.807 351.008,284.307 363.5,280C 370.421,279.869 377.087,278.536 383.5,276C 410.235,273.159 436.902,270.159 463.5,267C 479.725,264.463 495.725,260.963 511.5,256.5C 516.792,255.505 522.125,255.172 527.5,255.5 Z"/></g>
<g><path style="opacity:1" fill="#fce6ce" d="M 306.5,258.5 C 308.665,258.116 310.332,258.783 311.5,260.5C 311.807,278.495 311.474,296.495 310.5,314.5C 305.647,306.382 299.314,299.549 291.5,294C 285.793,291.465 280.46,288.465 275.5,285C 267.472,283.683 260.139,281.183 253.5,277.5C 254.989,275.884 255.989,273.884 256.5,271.5C 258.729,273.553 261.062,273.886 263.5,272.5C 264.167,272.5 264.5,272.167 264.5,271.5C 265.85,270.517 266.85,269.184 267.5,267.5C 272.708,270.927 276.208,269.594 278,263.5C 282.828,266.751 286.494,265.751 289,260.5C 294.267,263.783 297.767,262.449 299.5,256.5C 301.51,258.171 303.843,258.838 306.5,258.5 Z"/></g>
<g><path style="opacity:1" fill="#662f12" d="M 91.5,260.5 C 92.5,260.5 93.5,260.5 94.5,260.5C 93.3201,264.365 91.9868,268.199 90.5,272C 90.5699,272.765 90.9033,273.265 91.5,273.5C 90.4639,275.391 90.4639,277.224 91.5,279C 108.916,284.647 126.25,290.481 143.5,296.5C 143.738,298.645 144.738,300.312 146.5,301.5C 147.474,303.743 147.808,306.076 147.5,308.5C 146.549,307.081 146.216,305.415 146.5,303.5C 130.337,297.883 114.67,291.217 99.5,283.5C 89.4947,280.191 79.4947,276.691 69.5,273C 62.9561,268.916 55.9561,265.749 48.5,263.5C 47.6143,262.675 47.281,261.675 47.5,260.5C 62.3242,261.694 76.9909,261.694 91.5,260.5 Z"/></g>
<g><path style="opacity:1" fill="#e3c3a9" d="M 155.5,254.5 C 155.36,256.124 156.027,257.29 157.5,258C 186.889,264.716 216.556,268.216 246.5,268.5C 246.229,270.312 245.562,271.978 244.5,273.5C 243.893,273.376 243.56,273.043 243.5,272.5C 243.938,272.565 244.272,272.399 244.5,272C 224.861,269.862 205.194,267.529 185.5,265C 174.71,263.341 164.043,261.174 153.5,258.5C 153.5,257.5 153.5,256.5 153.5,255.5C 154.167,255.167 154.833,254.833 155.5,254.5 Z"/></g>
<g><path style="opacity:1" fill="#fde7ce" d="M 153.5,258.5 C 164.043,261.174 174.71,263.341 185.5,265C 205.194,267.529 224.861,269.862 244.5,272C 244.272,272.399 243.938,272.565 243.5,272.5C 239.888,271.924 236.888,272.924 234.5,275.5C 207.273,273.995 180.273,270.662 153.5,265.5C 153.5,263.167 153.5,260.833 153.5,258.5 Z"/></g>
<g><path style="opacity:1" fill="#fcc691" d="M 97.5,254.5 C 111.344,256.135 125.01,258.802 138.5,262.5C 139.925,262.377 141.258,262.043 142.5,261.5C 142.232,263.099 142.566,264.432 143.5,265.5C 143.953,266.458 144.619,267.292 145.5,268C 144.069,268.465 142.903,269.299 142,270.5C 141.253,273.853 141.753,277.02 143.5,280C 143.022,281.303 142.355,282.469 141.5,283.5C 140.423,284.018 139.256,284.352 138,284.5C 129.833,282.831 121.667,281.498 113.5,280.5C 106.194,278.222 98.8609,275.889 91.5,273.5C 90.9033,273.265 90.5699,272.765 90.5,272C 91.9868,268.199 93.3201,264.365 94.5,260.5C 95.4861,258.574 96.4861,256.574 97.5,254.5 Z"/></g>
<g><path style="opacity:1" fill="#fdc791" d="M 153.5,255.5 C 153.5,256.5 153.5,257.5 153.5,258.5C 153.5,260.833 153.5,263.167 153.5,265.5C 180.273,270.662 207.273,273.995 234.5,275.5C 234.5,276.833 234.5,278.167 234.5,279.5C 228.325,278.677 225.325,281.344 225.5,287.5C 218.946,287.375 216.613,290.375 218.5,296.5C 212.31,296.518 205.977,296.018 199.5,295C 184.379,291.624 169.046,289.124 153.5,287.5C 153.784,285.585 153.451,283.919 152.5,282.5C 151.038,281.542 149.705,280.376 148.5,279C 152.487,275.38 152.487,271.713 148.5,268C 149.942,267.623 150.942,266.79 151.5,265.5C 152.968,262.741 152.634,260.074 150.5,257.5C 151.357,256.575 152.357,255.908 153.5,255.5 Z"/></g>
<g><path style="opacity:1" fill="#d47018" d="M 264.5,271.5 C 264.5,272.167 264.167,272.5 263.5,272.5C 258.672,272.615 257.339,270.448 259.5,266C 261.134,265.506 262.801,265.34 264.5,265.5C 264.5,267.5 264.5,269.5 264.5,271.5 Z"/></g>
<g><path style="opacity:1" fill="#4b230d" d="M 575.5,259.5 C 577.604,259.201 579.604,259.534 581.5,260.5C 584.302,265.907 586.302,271.574 587.5,277.5C 587.167,278.833 586.833,280.167 586.5,281.5C 582.378,283.762 578.045,285.429 573.5,286.5C 571.43,285.493 569.43,285.826 567.5,287.5C 566.738,286.372 566.071,285.205 565.5,284C 566.769,281.861 566.769,279.695 565.5,277.5C 564.201,278.09 563.368,279.09 563,280.5C 562.503,282.81 562.337,285.143 562.5,287.5C 560.801,287.34 559.134,287.506 557.5,288C 556.853,289.609 556.02,291.109 555,292.5C 553.75,291.427 552.416,291.427 551,292.5C 550.055,292.095 549.388,291.428 549,290.5C 548.395,292.481 547.395,292.815 546,291.5C 545.25,292.126 544.416,292.626 543.5,293C 547.663,295.466 547.496,296.299 543,295.5C 540.864,297.433 538.531,299.099 536,300.5C 535.667,300.167 535.333,299.833 535,299.5C 533.421,301.041 531.587,302.208 529.5,303C 524.645,304.2 519.979,305.867 515.5,308C 513.937,308.759 512.937,309.926 512.5,311.5C 477.668,326.411 442.668,341.078 407.5,355.5C 399.693,359.114 391.693,362.114 383.5,364.5C 383.5,365.5 383.5,366.5 383.5,367.5C 372.783,369.32 362.616,372.987 353,378.5C 348.232,379.432 343.732,381.099 339.5,383.5C 339.709,384.086 340.043,384.586 340.5,385C 348.685,388.252 357.019,391.252 365.5,394C 366.833,395 368.167,396 369.5,397C 404.292,410.824 438.792,424.991 473,439.5C 473.333,439.167 473.667,438.833 474,438.5C 475.586,439.376 477.086,440.376 478.5,441.5C 479.298,441.043 479.631,440.376 479.5,439.5C 482.015,441.182 484.015,443.348 485.5,446C 483.391,451.497 481.391,456.997 479.5,462.5C 461.445,455.931 443.779,448.598 426.5,440.5C 421.156,437.768 415.822,434.934 410.5,432C 387.774,423.655 365.107,414.655 342.5,405C 338.332,400.948 333.332,399.115 327.5,399.5C 322.151,397.822 316.818,396.156 311.5,394.5C 306.984,395.949 302.317,396.782 297.5,397C 297.957,397.414 298.291,397.914 298.5,398.5C 295.592,399.395 292.925,400.728 290.5,402.5C 289.833,402.167 289.167,401.833 288.5,401.5C 280.106,404.473 271.939,408.139 264,412.5C 263.667,412.167 263.333,411.833 263,411.5C 262.769,413.157 261.935,414.491 260.5,415.5C 242.118,423.685 223.452,431.352 204.5,438.5C 202.076,438.192 199.743,438.526 197.5,439.5C 191.92,442.126 186.254,444.459 180.5,446.5C 180.167,445.833 179.833,445.167 179.5,444.5C 177.474,445.37 176.141,446.87 175.5,449C 173.5,449.333 171.5,449.667 169.5,450C 166.9,452.517 163.9,454.517 160.5,456C 158.5,456.333 156.5,456.667 154.5,457C 153.748,457.671 153.414,458.504 153.5,459.5C 151.78,460.864 149.78,461.864 147.5,462.5C 144.876,456.796 142.542,450.963 140.5,445C 144.324,440.01 148.657,435.51 153.5,431.5C 153.649,432.552 153.483,433.552 153,434.5C 149.312,436.663 146.812,439.329 145.5,442.5C 170.767,430.541 196.767,420.208 223.5,411.5C 223.5,410.5 223.5,409.5 223.5,408.5C 228.321,407.961 232.988,406.795 237.5,405C 242.385,402.147 247.385,399.48 252.5,397C 257.598,396.077 262.431,394.577 267,392.5C 268.129,394.141 269.629,395.141 271.5,395.5C 274.798,395.984 277.464,394.984 279.5,392.5C 282.167,391.833 284.833,391.167 287.5,390.5C 288.766,388.028 288.766,385.694 287.5,383.5C 286.7,381.259 285.034,380.259 282.5,380.5C 283.172,377.058 282.172,374.391 279.5,372.5C 277.735,371.539 275.735,371.205 273.5,371.5C 273.946,368.99 273.28,366.99 271.5,365.5C 271.5,365.167 271.5,364.833 271.5,364.5C 269.393,363.532 267.059,363.198 264.5,363.5C 264.969,360.607 263.969,358.607 261.5,357.5C 259.833,357.5 258.167,357.5 256.5,357.5C 256.023,354.975 254.69,352.975 252.5,351.5C 250.167,351.5 247.833,351.5 245.5,351.5C 245.5,350.5 245.5,349.5 245.5,348.5C 245.489,346.983 244.823,345.816 243.5,345C 244.833,344.333 246.167,344.333 247.5,345C 255.784,349.058 263.951,353.225 272,357.5C 272.333,357.167 272.667,356.833 273,356.5C 274.734,357.249 276.567,357.749 278.5,358C 286.359,362.709 294.692,366.209 303.5,368.5C 308.21,372.673 313.544,373.507 319.5,371C 338.485,362.182 357.818,353.849 377.5,346C 389.793,342.351 401.46,337.351 412.5,331C 421.895,328.641 430.895,325.141 439.5,320.5C 441.766,319.686 444.1,319.186 446.5,319C 474.864,305.657 503.864,293.657 533.5,283C 534.833,282 536.167,281 537.5,280C 547.427,277.028 556.76,273.028 565.5,268C 570.394,267.202 575.061,265.702 579.5,263.5C 580.386,262.675 580.719,261.675 580.5,260.5C 578.585,260.784 576.919,260.451 575.5,259.5 Z"/></g>
<g><path style="opacity:1" fill="#4c230e" d="M 91.5,260.5 C 76.9909,261.694 62.3242,261.694 47.5,260.5C 47.281,261.675 47.6143,262.675 48.5,263.5C 55.9561,265.749 62.9561,268.916 69.5,273C 79.4947,276.691 89.4947,280.191 99.5,283.5C 114.67,291.217 130.337,297.883 146.5,303.5C 146.216,305.415 146.549,307.081 147.5,308.5C 148.806,309.467 149.473,310.801 149.5,312.5C 150.833,312.5 152.167,312.5 153.5,312.5C 153.198,315.059 153.532,317.393 154.5,319.5C 154.414,320.496 154.748,321.329 155.5,322C 157.134,322.494 158.801,322.66 160.5,322.5C 160.448,324.903 160.781,327.236 161.5,329.5C 150.196,325.185 138.863,320.852 127.5,316.5C 121.088,313.065 114.255,310.065 107,307.5C 104.806,305.031 101.973,303.865 98.5,304C 97.1667,303.333 96.1667,302.333 95.5,301C 86.5369,298.845 77.8702,296.012 69.5,292.5C 69.5,291.5 69.5,290.5 69.5,289.5C 62.4482,287.98 55.7816,285.314 49.5,281.5C 48.0353,282.609 47.0353,282.109 46.5,280C 43.854,279.503 41.1873,279.336 38.5,279.5C 40.2462,276.86 41.9128,274.027 43.5,271C 42.8748,267.955 42.8748,265.122 43.5,262.5C 43.8039,261.85 44.1373,261.183 44.5,260.5C 49,260.167 53.5,259.833 58,259.5C 69.1618,260.05 80.3285,260.383 91.5,260.5 Z"/></g>
<g><path style="opacity:1" fill="#a75313" d="M 311.5,244.5 C 310.167,250.5 312.5,252.833 318.5,251.5C 316.234,253.763 313.567,254.096 310.5,252.5C 309.824,253.602 309.158,254.602 308.5,255.5C 307.833,256.5 307.167,257.5 306.5,258.5C 303.843,258.838 301.51,258.171 299.5,256.5C 297.767,262.449 294.267,263.783 289,260.5C 286.494,265.751 282.828,266.751 278,263.5C 276.208,269.594 272.708,270.927 267.5,267.5C 266.85,269.184 265.85,270.517 264.5,271.5C 264.5,269.5 264.5,267.5 264.5,265.5C 262.801,265.34 261.134,265.506 259.5,266C 257.339,270.448 258.672,272.615 263.5,272.5C 261.062,273.886 258.729,273.553 256.5,271.5C 255.989,273.884 254.989,275.884 253.5,277.5C 251.08,277.708 248.747,277.374 246.5,276.5C 246.091,282.593 243.091,284.593 237.5,282.5C 236.83,284.291 236.163,285.958 235.5,287.5C 235.389,288.117 235.056,288.617 234.5,289C 232.527,289.495 230.527,289.662 228.5,289.5C 228.663,291.857 228.497,294.19 228,296.5C 227.292,297.381 226.458,298.047 225.5,298.5C 224.127,298.343 222.793,298.51 221.5,299C 223.396,300.808 223.896,302.975 223,305.5C 221.242,307.083 219.742,308.75 218.5,310.5C 216.208,310.244 214.041,310.577 212,311.5C 211.288,314.438 211.788,317.104 213.5,319.5C 211.457,318.421 210.124,316.754 209.5,314.5C 209.943,311.376 211.61,309.043 214.5,307.5C 210.952,301.825 212.286,298.158 218.5,296.5C 216.613,290.375 218.946,287.375 225.5,287.5C 225.325,281.344 228.325,278.677 234.5,279.5C 234.5,278.167 234.5,276.833 234.5,275.5C 236.888,272.924 239.888,271.924 243.5,272.5C 243.56,273.043 243.893,273.376 244.5,273.5C 245.562,271.978 246.229,270.312 246.5,268.5C 249.136,267.176 251.802,267.176 254.5,268.5C 256.57,262.429 260.237,261.096 265.5,264.5C 267.226,258.211 270.893,256.877 276.5,260.5C 278.564,255.599 282.064,254.266 287,256.5C 289.556,251.341 293.223,250.341 298,253.5C 299.519,247.768 303.019,246.101 308.5,248.5C 309.057,246.668 310.057,245.335 311.5,244.5 Z"/></g>
<g><path style="opacity:1" fill="#d36d15" d="M 269.5,260.5 C 275.362,260.662 276.695,263.162 273.5,268C 271.633,268.711 270.133,268.211 269,266.5C 268.82,264.512 268.986,262.512 269.5,260.5 Z"/></g>
<g><path style="opacity:1" fill="#d56f19" d="M 281.5,257.5 C 283.144,257.286 284.644,257.62 286,258.5C 285.848,260.519 285.348,262.519 284.5,264.5C 279.161,264.177 278.161,261.843 281.5,257.5 Z"/></g>
<g><path style="opacity:1" fill="#d46e19" d="M 291.5,253.5 C 296.52,252.905 298.186,254.905 296.5,259.5C 290.735,261.252 289.068,259.252 291.5,253.5 Z"/></g>
<g><path style="opacity:1" fill="#d56f18" d="M 308.5,255.5 C 306.545,256.323 304.545,256.49 302.5,256C 300.695,251.815 302.028,249.815 306.5,250C 308.155,251.444 308.822,253.278 308.5,255.5 Z"/></g>
<g><path style="opacity:1" fill="#b1590e" d="M 149.5,259.5 C 151.28,260.99 151.946,262.99 151.5,265.5C 150.942,266.79 149.942,267.623 148.5,268C 152.487,271.713 152.487,275.38 148.5,279C 149.705,280.376 151.038,281.542 152.5,282.5C 152.838,285.157 152.171,287.49 150.5,289.5C 152.19,291.519 153.856,293.519 155.5,295.5C 154.359,297.549 154.359,299.549 155.5,301.5C 156.315,302.837 157.482,303.837 159,304.5C 159.49,305.793 159.657,307.127 159.5,308.5C 158.094,308.973 157.427,309.973 157.5,311.5C 158.568,312.434 159.901,312.768 161.5,312.5C 164.053,320.448 161.719,322.781 154.5,319.5C 153.532,317.393 153.198,315.059 153.5,312.5C 152.167,312.5 150.833,312.5 149.5,312.5C 149.473,310.801 148.806,309.467 147.5,308.5C 147.808,306.076 147.474,303.743 146.5,301.5C 144.738,300.312 143.738,298.645 143.5,296.5C 144.038,294.883 144.371,293.216 144.5,291.5C 145.239,291.631 145.906,291.464 146.5,291C 144.881,290.764 143.881,289.931 143.5,288.5C 141.787,287.365 141.12,285.698 141.5,283.5C 142.355,282.469 143.022,281.303 143.5,280C 141.753,277.02 141.253,273.853 142,270.5C 142.903,269.299 144.069,268.465 145.5,268C 144.619,267.292 143.953,266.458 143.5,265.5C 143.5,265.167 143.5,264.833 143.5,264.5C 148.655,266.338 150.655,264.671 149.5,259.5 Z"/></g>
<g><path style="opacity:1" fill="#d47015" d="M 143.5,270.5 C 148.663,270.107 150.33,272.273 148.5,277C 143.126,277.762 141.459,275.595 143.5,270.5 Z"/></g>
<g><path style="opacity:1" fill="#d66f17" d="M 248.5,269.5 C 254.555,268.942 255.888,271.109 252.5,276C 250.888,276.72 249.388,276.554 248,275.5C 247.51,273.455 247.677,271.455 248.5,269.5 Z"/></g>
<g><path style="opacity:1" fill="#462314" d="M 573.5,286.5 C 553.555,295.634 533.222,303.968 512.5,311.5C 512.937,309.926 513.937,308.759 515.5,308C 519.979,305.867 524.645,304.2 529.5,303C 531.587,302.208 533.421,301.041 535,299.5C 535.333,299.833 535.667,300.167 536,300.5C 538.531,299.099 540.864,297.433 543,295.5C 547.496,296.299 547.663,295.466 543.5,293C 544.416,292.626 545.25,292.126 546,291.5C 547.395,292.815 548.395,292.481 549,290.5C 549.388,291.428 550.055,292.095 551,292.5C 552.416,291.427 553.75,291.427 555,292.5C 556.02,291.109 556.853,289.609 557.5,288C 559.134,287.506 560.801,287.34 562.5,287.5C 562.337,285.143 562.503,282.81 563,280.5C 563.368,279.09 564.201,278.09 565.5,277.5C 566.769,279.695 566.769,281.861 565.5,284C 566.071,285.205 566.738,286.372 567.5,287.5C 569.43,285.826 571.43,285.493 573.5,286.5 Z"/></g>
<g><path style="opacity:1" fill="#d47017" d="M 239.5,275.5 C 241.167,275.5 242.833,275.5 244.5,275.5C 245.21,278.885 244.044,281.219 241,282.5C 237.065,280.867 236.565,278.534 239.5,275.5 Z"/></g>
<g><path style="opacity:1" fill="#e0b478" d="M 113.5,280.5 C 121.667,281.498 129.833,282.831 138,284.5C 139.256,284.352 140.423,284.018 141.5,283.5C 141.12,285.698 141.787,287.365 143.5,288.5C 143.881,289.931 144.881,290.764 146.5,291C 145.906,291.464 145.239,291.631 144.5,291.5C 133.769,288.619 123.436,284.953 113.5,280.5 Z"/></g>
<g><path style="opacity:1" fill="#d57016" d="M 143.5,288.5 C 143.5,286.5 143.5,284.5 143.5,282.5C 145.5,282.5 147.5,282.5 149.5,282.5C 149.5,284.5 149.5,286.5 149.5,288.5C 147.5,288.5 145.5,288.5 143.5,288.5 Z"/></g>
<g><path style="opacity:1" fill="#d37018" d="M 235.5,287.5 C 233.545,288.323 231.545,288.49 229.5,288C 227.695,283.815 229.028,281.815 233.5,282C 235.155,283.444 235.822,285.278 235.5,287.5 Z"/></g>
<g><path style="opacity:1" fill="#5e6f30" d="M 91.5,273.5 C 98.8609,275.889 106.194,278.222 113.5,280.5C 123.436,284.953 133.769,288.619 144.5,291.5C 144.371,293.216 144.038,294.883 143.5,296.5C 126.25,290.481 108.916,284.647 91.5,279C 90.4639,277.224 90.4639,275.391 91.5,273.5 Z"/></g>
<g><path style="opacity:1" fill="#42251d" d="M 43.5,262.5 C 42.8748,265.122 42.8748,267.955 43.5,271C 41.9128,274.027 40.2462,276.86 38.5,279.5C 41.1873,279.336 43.854,279.503 46.5,280C 47.0353,282.109 48.0353,282.609 49.5,281.5C 55.7816,285.314 62.4482,287.98 69.5,289.5C 69.5,290.5 69.5,291.5 69.5,292.5C 77.8702,296.012 86.5369,298.845 95.5,301C 96.1667,302.333 97.1667,303.333 98.5,304C 101.973,303.865 104.806,305.031 107,307.5C 114.255,310.065 121.088,313.065 127.5,316.5C 96.712,305.106 66.3786,292.606 36.5,279C 39.1287,273.611 41.462,268.111 43.5,262.5 Z"/></g>
<g><path style="opacity:1" fill="#eab579" d="M 152.5,282.5 C 153.451,283.919 153.784,285.585 153.5,287.5C 169.046,289.124 184.379,291.624 199.5,295C 205.977,296.018 212.31,296.518 218.5,296.5C 212.286,298.158 210.952,301.825 214.5,307.5C 211.61,309.043 209.943,311.376 209.5,314.5C 191.349,308.561 173.349,302.228 155.5,295.5C 153.856,293.519 152.19,291.519 150.5,289.5C 152.171,287.49 152.838,285.157 152.5,282.5 Z"/></g>
<g><path style="opacity:1" fill="#d47017" d="M 221.5,289.5 C 226.486,289.305 228.152,291.472 226.5,296C 221.279,296.61 219.612,294.443 221.5,289.5 Z"/></g>
<g><path style="opacity:1" fill="#eab57a" d="M 529.5,260.5 C 529.833,260.5 530.167,260.5 530.5,260.5C 531.253,264.677 532.586,268.677 534.5,272.5C 534.043,273.298 533.376,273.631 532.5,273.5C 469.252,295.432 406.086,317.432 343,339.5C 332.037,361.377 315.537,366.877 293.5,356C 288.304,351.144 284.304,345.477 281.5,339C 260.886,331.852 240.22,325.019 219.5,318.5C 219.894,317.033 220.227,315.533 220.5,314C 220.613,312.301 219.947,311.134 218.5,310.5C 219.742,308.75 221.242,307.083 223,305.5C 223.896,302.975 223.396,300.808 221.5,299C 222.793,298.51 224.127,298.343 225.5,298.5C 238.739,301.884 252.072,305.384 265.5,309C 274.157,312.661 282.823,316.327 291.5,320C 300.906,325.62 307.906,333.453 312.5,343.5C 314.828,337.69 318.495,332.856 323.5,329C 332.593,324.12 341.927,319.786 351.5,316C 385.567,305.484 420.234,297.484 455.5,292C 481.221,286.649 505.888,278.315 529.5,267C 529.014,264.973 529.014,262.807 529.5,260.5 Z"/></g>
<g><path style="opacity:1" fill="#5f7030" d="M 532.5,273.5 C 533.038,275.117 533.371,276.784 533.5,278.5C 470.912,299.998 408.245,321.831 345.5,344C 340.87,356.137 332.203,363.304 319.5,365.5C 314.167,365.5 308.833,365.5 303.5,365.5C 292.183,362.193 283.85,355.193 278.5,344.5C 260.137,338.292 241.804,331.959 223.5,325.5C 223.201,322.358 221.534,320.191 218.5,319C 218.728,318.601 219.062,318.435 219.5,318.5C 240.22,325.019 260.886,331.852 281.5,339C 284.304,345.477 288.304,351.144 293.5,356C 315.537,366.877 332.037,361.377 343,339.5C 406.086,317.432 469.252,295.432 532.5,273.5 Z"/></g>
<g><path style="opacity:1" fill="#d46f16" d="M 216.5,299.5 C 221.328,299.385 222.661,301.552 220.5,306C 215.57,306.427 214.237,304.26 216.5,299.5 Z"/></g>
<g><path style="opacity:1" fill="#5e6e2e" d="M 155.5,295.5 C 173.349,302.228 191.349,308.561 209.5,314.5C 210.124,316.754 211.457,318.421 213.5,319.5C 214.506,319.938 214.506,320.604 213.5,321.5C 212.833,321.5 212.167,321.5 211.5,321.5C 193.078,314.296 174.412,307.629 155.5,301.5C 154.359,299.549 154.359,297.549 155.5,295.5 Z"/></g>
<g><path style="opacity:1" fill="#3b221c" d="M 127.5,316.5 C 138.863,320.852 150.196,325.185 161.5,329.5C 164.202,330.701 166.202,332.034 167.5,333.5C 153.763,328.594 140.43,322.927 127.5,316.5 Z"/></g>
<g><path style="opacity:1" fill="#662e11" d="M 155.5,301.5 C 174.412,307.629 193.078,314.296 211.5,321.5C 211.344,324.066 211.678,326.566 212.5,329C 213.619,330.876 215.286,331.709 217.5,331.5C 217.5,333.5 217.5,335.5 217.5,337.5C 216.549,336.081 216.216,334.415 216.5,332.5C 214.801,332.66 213.134,332.494 211.5,332C 210.449,330.615 209.116,329.615 207.5,329C 191.236,322.455 175.236,315.622 159.5,308.5C 159.657,307.127 159.49,305.793 159,304.5C 157.482,303.837 156.315,302.837 155.5,301.5 Z"/></g>
<g><path style="opacity:1" fill="#9a4b0c" d="M 157.5,311.5 C 163.329,311 165.663,313.666 164.5,319.5C 169.454,319.962 172.121,322.628 172.5,327.5C 178.215,327.215 180.882,329.882 180.5,335.5C 179.558,335.04 178.891,333.707 178.5,331.5C 173.904,329.35 171.237,330.683 170.5,335.5C 169.29,335.068 168.29,334.401 167.5,333.5C 166.202,332.034 164.202,330.701 161.5,329.5C 160.781,327.236 160.448,324.903 160.5,322.5C 158.801,322.66 157.134,322.494 155.5,322C 154.748,321.329 154.414,320.496 154.5,319.5C 161.719,322.781 164.053,320.448 161.5,312.5C 159.901,312.768 158.568,312.434 157.5,311.5 Z"/></g>
<g><path style="opacity:1" fill="#4c230c" d="M 159.5,308.5 C 175.236,315.622 191.236,322.455 207.5,329C 209.116,329.615 210.449,330.615 211.5,332C 213.134,332.494 214.801,332.66 216.5,332.5C 216.216,334.415 216.549,336.081 217.5,337.5C 218.855,340.518 221.188,341.851 224.5,341.5C 224.5,342.833 224.5,344.167 224.5,345.5C 224.5,347.167 224.5,348.833 224.5,350.5C 227.187,350.336 229.854,350.503 232.5,351C 232.043,351.414 231.709,351.914 231.5,352.5C 232.5,353.833 233.5,355.167 234.5,356.5C 234.167,357.5 233.5,358.167 232.5,358.5C 231.738,357.372 231.071,356.205 230.5,355C 224.206,351.697 217.539,349.197 210.5,347.5C 210.167,346.833 209.833,346.167 209.5,345.5C 206.572,344.516 203.572,344.183 200.5,344.5C 200.512,341.858 199.179,340.525 196.5,340.5C 194.409,340.318 192.409,340.652 190.5,341.5C 189.807,335.668 186.807,333.668 181.5,335.5C 181.167,335.5 180.833,335.5 180.5,335.5C 180.882,329.882 178.215,327.215 172.5,327.5C 172.121,322.628 169.454,319.962 164.5,319.5C 165.663,313.666 163.329,311 157.5,311.5C 157.427,309.973 158.094,308.973 159.5,308.5 Z"/></g>
<g><path style="opacity:1" fill="#bf5f0b" d="M 218.5,310.5 C 219.93,313.896 219.263,316.896 216.5,319.5C 217.655,320.95 219.155,321.95 221,322.5C 221.5,327.333 219.333,329.5 214.5,329C 212.738,326.597 212.405,324.097 213.5,321.5C 214.506,320.604 214.506,319.938 213.5,319.5C 211.788,317.104 211.288,314.438 212,311.5C 214.041,310.577 216.208,310.244 218.5,310.5 Z"/></g>
<g><path style="opacity:1" fill="#d16e16" d="M 164.5,322.5 C 168.976,322.8 170.31,324.967 168.5,329C 162.36,329.808 161.027,327.641 164.5,322.5 Z"/></g>
<g><path style="opacity:1" fill="#662f12" d="M 575.5,259.5 C 576.919,260.451 578.585,260.784 580.5,260.5C 580.719,261.675 580.386,262.675 579.5,263.5C 575.061,265.702 570.394,267.202 565.5,268C 556.76,273.028 547.427,277.028 537.5,280C 536.167,281 534.833,282 533.5,283C 503.864,293.657 474.864,305.657 446.5,319C 444.1,319.186 441.766,319.686 439.5,320.5C 430.895,325.141 421.895,328.641 412.5,331C 401.46,337.351 389.793,342.351 377.5,346C 357.818,353.849 338.485,362.182 319.5,371C 313.544,373.507 308.21,372.673 303.5,368.5C 294.692,366.209 286.359,362.709 278.5,358C 276.567,357.749 274.734,357.249 273,356.5C 272.667,356.833 272.333,357.167 272,357.5C 263.951,353.225 255.784,349.058 247.5,345C 246.167,344.333 244.833,344.333 243.5,345C 244.823,345.816 245.489,346.983 245.5,348.5C 243.046,345.542 240.046,344.875 236.5,346.5C 235.832,344.031 235.165,341.698 234.5,339.5C 232.898,337.926 230.898,337.259 228.5,337.5C 229.862,332.213 227.862,329.546 222.5,329.5C 222.433,328.041 222.766,326.708 223.5,325.5C 241.804,331.959 260.137,338.292 278.5,344.5C 283.85,355.193 292.183,362.193 303.5,365.5C 306.356,367.006 309.523,367.672 313,367.5C 315.61,367.467 317.777,366.8 319.5,365.5C 332.203,363.304 340.87,356.137 345.5,344C 408.245,321.831 470.912,299.998 533.5,278.5C 533.371,276.784 533.038,275.117 532.5,273.5C 533.376,273.631 534.043,273.298 534.5,272.5C 532.586,268.677 531.253,264.677 530.5,260.5C 545.517,260.689 560.517,260.355 575.5,259.5 Z"/></g>
<g><path style="opacity:1" fill="#c16110" d="M 180.5,335.5 C 180.833,335.5 181.167,335.5 181.5,335.5C 183.679,336.103 185.846,336.77 188,337.5C 189.418,341.442 188.084,343.775 184,344.5C 181.292,343.234 179.792,341.067 179.5,338C 176.189,337.943 173.189,337.11 170.5,335.5C 171.237,330.683 173.904,329.35 178.5,331.5C 178.891,333.707 179.558,335.04 180.5,335.5 Z"/></g>
<g><path style="opacity:1" fill="#bc5e0b" d="M 234.5,339.5 C 235.165,341.698 235.832,344.031 236.5,346.5C 240.046,344.875 243.046,345.542 245.5,348.5C 245.5,349.5 245.5,350.5 245.5,351.5C 247.833,351.5 250.167,351.5 252.5,351.5C 255.199,357.975 253.199,360.809 246.5,360C 245.833,358.333 245.167,356.667 244.5,355C 242.167,354.667 239.833,354.333 237.5,354C 235.855,352.2 234.522,350.2 233.5,348C 227.828,348.179 225.828,345.679 227.5,340.5C 229.743,339.526 232.076,339.192 234.5,339.5 Z"/></g>
<g><path style="opacity:1" fill="#672f12" d="M 407.5,355.5 C 406.697,356.423 406.53,357.423 407,358.5C 417.412,369.073 427.245,380.073 436.5,391.5C 439.184,394.87 441.517,398.536 443.5,402.5C 446.094,403.592 448.261,405.259 450,407.5C 454.08,412.743 458.58,417.41 463.5,421.5C 469.301,427.115 474.634,433.115 479.5,439.5C 479.631,440.376 479.298,441.043 478.5,441.5C 477.086,440.376 475.586,439.376 474,438.5C 473.667,438.833 473.333,439.167 473,439.5C 438.792,424.991 404.292,410.824 369.5,397C 368.167,396 366.833,395 365.5,394C 357.019,391.252 348.685,388.252 340.5,385C 340.043,384.586 339.709,384.086 339.5,383.5C 343.732,381.099 348.232,379.432 353,378.5C 362.616,372.987 372.783,369.32 383.5,367.5C 383.5,366.5 383.5,365.5 383.5,364.5C 391.693,362.114 399.693,359.114 407.5,355.5 Z"/></g>
<g><path style="opacity:1" fill="#bd5e0d" d="M 231.5,367.5 C 230.126,364.543 227.96,363.876 225,365.5C 223.272,365.101 221.772,364.434 220.5,363.5C 219.985,356.324 222.818,354.658 229,358.5C 229.49,359.793 229.657,361.127 229.5,362.5C 232.482,362.037 235.482,361.704 238.5,361.5C 240.056,368.972 237.723,370.972 231.5,367.5 Z"/></g>
<g><path style="opacity:1" fill="#d26f15" d="M 271.5,364.5 C 271.5,364.833 271.5,365.167 271.5,365.5C 272.902,369.936 271.236,371.769 266.5,371C 264.175,365.846 265.842,363.679 271.5,364.5 Z"/></g>
<g><path style="opacity:1" fill="#655726" d="M 303.5,365.5 C 308.833,365.5 314.167,365.5 319.5,365.5C 317.777,366.8 315.61,367.467 313,367.5C 309.523,367.672 306.356,367.006 303.5,365.5 Z"/></g>
<g><path style="opacity:1" fill="#672e12" d="M 219.5,363.5 C 219.833,363.5 220.167,363.5 220.5,363.5C 221.772,364.434 223.272,365.101 225,365.5C 227.96,363.876 230.126,364.543 231.5,367.5C 231.5,368.5 231.5,369.5 231.5,370.5C 234.247,370.187 236.914,370.52 239.5,371.5C 240.128,373.258 241.128,374.758 242.5,376C 245.753,376.201 248.753,377.034 251.5,378.5C 252.99,380.28 254.99,380.946 257.5,380.5C 258.9,381.1 259.9,382.1 260.5,383.5C 260.511,385.017 261.177,386.184 262.5,387C 264.473,387.495 266.473,387.662 268.5,387.5C 267.908,390.631 268.908,392.964 271.5,394.5C 271.5,394.833 271.5,395.167 271.5,395.5C 269.629,395.141 268.129,394.141 267,392.5C 262.431,394.577 257.598,396.077 252.5,397C 247.385,399.48 242.385,402.147 237.5,405C 232.988,406.795 228.321,407.961 223.5,408.5C 223.5,409.5 223.5,410.5 223.5,411.5C 196.767,420.208 170.767,430.541 145.5,442.5C 146.812,439.329 149.312,436.663 153,434.5C 153.483,433.552 153.649,432.552 153.5,431.5C 175.164,408.503 197.164,385.836 219.5,363.5 Z"/></g>
<g><path style="opacity:1" fill="#d36e15" d="M 257.5,380.5 C 254.99,380.946 252.99,380.28 251.5,378.5C 251.083,373.932 253.083,372.432 257.5,374C 258.768,376.163 258.768,378.33 257.5,380.5 Z"/></g>
<g><path style="opacity:1" fill="#9e4d0b" d="M 218.5,310.5 C 219.947,311.134 220.613,312.301 220.5,314C 220.227,315.533 219.894,317.033 219.5,318.5C 219.062,318.435 218.728,318.601 218.5,319C 221.534,320.191 223.201,322.358 223.5,325.5C 222.766,326.708 222.433,328.041 222.5,329.5C 227.862,329.546 229.862,332.213 228.5,337.5C 230.898,337.259 232.898,337.926 234.5,339.5C 232.076,339.192 229.743,339.526 227.5,340.5C 225.828,345.679 227.828,348.179 233.5,348C 234.522,350.2 235.855,352.2 237.5,354C 239.833,354.333 242.167,354.667 244.5,355C 245.167,356.667 245.833,358.333 246.5,360C 253.199,360.809 255.199,357.975 252.5,351.5C 254.69,352.975 256.023,354.975 256.5,357.5C 254.079,363.419 256.079,365.752 262.5,364.5C 262.702,362.05 262.369,359.717 261.5,357.5C 263.969,358.607 264.969,360.607 264.5,363.5C 267.059,363.198 269.393,363.532 271.5,364.5C 265.842,363.679 264.175,365.846 266.5,371C 271.236,371.769 272.902,369.936 271.5,365.5C 273.28,366.99 273.946,368.99 273.5,371.5C 275.735,371.205 277.735,371.539 279.5,372.5C 282.172,374.391 283.172,377.058 282.5,380.5C 285.034,380.259 286.7,381.259 287.5,383.5C 288.766,385.694 288.766,388.028 287.5,390.5C 284.833,391.167 282.167,391.833 279.5,392.5C 277.464,394.984 274.798,395.984 271.5,395.5C 271.5,395.167 271.5,394.833 271.5,394.5C 276.923,393.839 277.923,391.172 274.5,386.5C 272.955,385.548 271.288,385.215 269.5,385.5C 268.837,380.326 266.17,378.826 261.5,381C 260.748,381.671 260.414,382.504 260.5,383.5C 259.9,382.1 258.9,381.1 257.5,380.5C 258.768,378.33 258.768,376.163 257.5,374C 253.083,372.432 251.083,373.932 251.5,378.5C 248.753,377.034 245.753,376.201 242.5,376C 241.128,374.758 240.128,373.258 239.5,371.5C 236.914,370.52 234.247,370.187 231.5,370.5C 231.5,369.5 231.5,368.5 231.5,367.5C 237.723,370.972 240.056,368.972 238.5,361.5C 235.482,361.704 232.482,362.037 229.5,362.5C 229.657,361.127 229.49,359.793 229,358.5C 222.818,354.658 219.985,356.324 220.5,363.5C 220.167,363.5 219.833,363.5 219.5,363.5C 219.843,361.517 219.176,360.183 217.5,359.5C 218.493,354.325 216.493,352.491 211.5,354C 209.848,358.528 211.514,360.695 216.5,360.5C 215.054,361.613 213.387,361.78 211.5,361C 210.044,359.255 208.711,357.422 207.5,355.5C 202.449,357.476 199.116,355.809 197.5,350.5C 192.002,352.364 188.669,350.364 187.5,344.5C 181.888,346.567 178.888,344.567 178.5,338.5C 176.143,338.663 173.81,338.497 171.5,338C 170.748,337.329 170.414,336.496 170.5,335.5C 173.189,337.11 176.189,337.943 179.5,338C 179.792,341.067 181.292,343.234 184,344.5C 188.084,343.775 189.418,341.442 188,337.5C 185.846,336.77 183.679,336.103 181.5,335.5C 186.807,333.668 189.807,335.668 190.5,341.5C 192.409,340.652 194.409,340.318 196.5,340.5C 198.306,342.089 199.639,344.089 200.5,346.5C 205.698,344.442 208.698,346.109 209.5,351.5C 212.833,350.167 216.167,350.167 219.5,351.5C 219.5,352.833 219.5,354.167 219.5,355.5C 225.342,352.989 229.342,354.656 231.5,360.5C 235.784,358.542 239.117,359.542 241.5,363.5C 244.212,364.228 246.879,365.061 249.5,366C 251.037,367.11 251.703,368.61 251.5,370.5C 256.393,369.314 259.727,370.981 261.5,375.5C 263.766,376.314 266.1,376.814 268.5,377C 269.627,378.753 270.627,380.587 271.5,382.5C 273.92,384.219 276.253,384.386 278.5,383C 272.713,383.044 270.38,380.211 271.5,374.5C 264.974,375.789 262.14,373.123 263,366.5C 260.599,367.602 258.099,367.769 255.5,367C 253.845,365.556 253.178,363.722 253.5,361.5C 250.813,361.664 248.146,361.497 245.5,361C 244.134,359.4 243.134,357.567 242.5,355.5C 237.23,357.151 234.23,355.151 233.5,349.5C 231.396,349.799 229.396,349.466 227.5,348.5C 226.812,347.145 225.812,346.145 224.5,345.5C 224.5,344.167 224.5,342.833 224.5,341.5C 221.188,341.851 218.855,340.518 217.5,337.5C 217.5,335.5 217.5,333.5 217.5,331.5C 215.286,331.709 213.619,330.876 212.5,329C 211.678,326.566 211.344,324.066 211.5,321.5C 212.167,321.5 212.833,321.5 213.5,321.5C 212.405,324.097 212.738,326.597 214.5,329C 219.333,329.5 221.5,327.333 221,322.5C 219.155,321.95 217.655,320.95 216.5,319.5C 219.263,316.896 219.93,313.896 218.5,310.5 Z"/></g>
<g><path style="opacity:1" fill="#d47015" d="M 279.5,372.5 C 281.514,376.996 280.18,379.163 275.5,379C 273.016,374.82 274.349,372.654 279.5,372.5 Z"/></g>
<g><path style="opacity:1" fill="#d06e16" d="M 243.5,367.5 C 248.328,367.385 249.661,369.552 247.5,374C 241.36,374.808 240.027,372.641 243.5,367.5 Z"/></g>
<g><path style="opacity:1" fill="#cf6d16" d="M 256.5,357.5 C 258.167,357.5 259.833,357.5 261.5,357.5C 262.369,359.717 262.702,362.05 262.5,364.5C 256.079,365.752 254.079,363.419 256.5,357.5 Z"/></g>
<g><path style="opacity:1" fill="#d36e17" d="M 217.5,359.5 C 217.5,360.167 217.167,360.5 216.5,360.5C 211.514,360.695 209.848,358.528 211.5,354C 216.493,352.491 218.493,354.325 217.5,359.5 Z"/></g>
<g><path style="opacity:1" fill="#552408" d="M 196.5,340.5 C 199.179,340.525 200.512,341.858 200.5,344.5C 203.572,344.183 206.572,344.516 209.5,345.5C 209.833,346.167 210.167,346.833 210.5,347.5C 217.539,349.197 224.206,351.697 230.5,355C 231.071,356.205 231.738,357.372 232.5,358.5C 233.5,358.167 234.167,357.5 234.5,356.5C 233.5,355.167 232.5,353.833 231.5,352.5C 231.709,351.914 232.043,351.414 232.5,351C 229.854,350.503 227.187,350.336 224.5,350.5C 224.5,348.833 224.5,347.167 224.5,345.5C 225.812,346.145 226.812,347.145 227.5,348.5C 229.396,349.466 231.396,349.799 233.5,349.5C 234.23,355.151 237.23,357.151 242.5,355.5C 243.134,357.567 244.134,359.4 245.5,361C 248.146,361.497 250.813,361.664 253.5,361.5C 253.178,363.722 253.845,365.556 255.5,367C 258.099,367.769 260.599,367.602 263,366.5C 262.14,373.123 264.974,375.789 271.5,374.5C 270.38,380.211 272.713,383.044 278.5,383C 276.253,384.386 273.92,384.219 271.5,382.5C 270.627,380.587 269.627,378.753 268.5,377C 266.1,376.814 263.766,376.314 261.5,375.5C 259.727,370.981 256.393,369.314 251.5,370.5C 251.703,368.61 251.037,367.11 249.5,366C 246.879,365.061 244.212,364.228 241.5,363.5C 239.117,359.542 235.784,358.542 231.5,360.5C 229.342,354.656 225.342,352.989 219.5,355.5C 219.5,354.167 219.5,352.833 219.5,351.5C 216.167,350.167 212.833,350.167 209.5,351.5C 208.698,346.109 205.698,344.442 200.5,346.5C 199.639,344.089 198.306,342.089 196.5,340.5 Z"/></g>
<g><path style="opacity:1" fill="#d67018" d="M 201.5,348.5 C 205.833,348.167 207.833,350.167 207.5,354.5C 201.591,355.926 199.591,353.926 201.5,348.5 Z"/></g>
<g><path style="opacity:1" fill="#d46f17" d="M 191.5,343.5 C 193.5,343.5 195.5,343.5 197.5,343.5C 198.321,349.158 196.154,350.825 191,348.5C 190.36,346.735 190.527,345.068 191.5,343.5 Z"/></g>
<g><path style="opacity:1" fill="#d36e14" d="M 220.5,331.5 C 222.5,331.5 224.5,331.5 226.5,331.5C 226.5,333.5 226.5,335.5 226.5,337.5C 220.591,338.926 218.591,336.926 220.5,331.5 Z"/></g>
<g><path style="opacity:1" fill="#be600e" d="M 271.5,394.5 C 268.908,392.964 267.908,390.631 268.5,387.5C 266.473,387.662 264.473,387.495 262.5,387C 261.177,386.184 260.511,385.017 260.5,383.5C 260.414,382.504 260.748,381.671 261.5,381C 266.17,378.826 268.837,380.326 269.5,385.5C 271.288,385.215 272.955,385.548 274.5,386.5C 277.923,391.172 276.923,393.839 271.5,394.5 Z"/></g>
<g><path style="opacity:1" fill="#d26e14" d="M 287.5,383.5 C 287.675,389.155 285.509,390.488 281,387.5C 280.573,382.57 282.74,381.237 287.5,383.5 Z"/></g>
<g><path style="opacity:1" fill="#5e2e21" d="M 436.5,391.5 C 446.212,400.877 455.212,410.877 463.5,421.5C 458.58,417.41 454.08,412.743 450,407.5C 448.261,405.259 446.094,403.592 443.5,402.5C 441.517,398.536 439.184,394.87 436.5,391.5 Z"/></g>
<g><path style="opacity:1" fill="#412218" d="M 311.5,394.5 C 294.863,402.055 277.863,409.055 260.5,415.5C 261.935,414.491 262.769,413.157 263,411.5C 263.333,411.833 263.667,412.167 264,412.5C 271.939,408.139 280.106,404.473 288.5,401.5C 289.167,401.833 289.833,402.167 290.5,402.5C 292.925,400.728 295.592,399.395 298.5,398.5C 298.291,397.914 297.957,397.414 297.5,397C 302.317,396.782 306.984,395.949 311.5,394.5 Z"/></g>
<g><path style="opacity:1" fill="#3f251e" d="M 327.5,399.5 C 333.332,399.115 338.332,400.948 342.5,405C 365.107,414.655 387.774,423.655 410.5,432C 415.822,434.934 421.156,437.768 426.5,440.5C 393.17,427.67 360.17,414.003 327.5,399.5 Z"/></g>
<g><path style="opacity:1" fill="#412217" d="M 204.5,438.5 C 187.789,446.074 170.789,453.074 153.5,459.5C 153.414,458.504 153.748,457.671 154.5,457C 156.5,456.667 158.5,456.333 160.5,456C 163.9,454.517 166.9,452.517 169.5,450C 171.5,449.667 173.5,449.333 175.5,449C 176.141,446.87 177.474,445.37 179.5,444.5C 179.833,445.167 180.167,445.833 180.5,446.5C 186.254,444.459 191.92,442.126 197.5,439.5C 199.743,438.526 202.076,438.192 204.5,438.5 Z"/></g>
</svg>
