<?xml version="1.0" encoding="UTF-8"?>
<!DOCTYPE svg PUBLIC "-//W3C//DTD SVG 1.1//EN" "http://www.w3.org/Graphics/SVG/1.1/DTD/svg11.dtd">
<svg xmlns="http://www.w3.org/2000/svg" version="1.1" width="626px" height="626px" style="shape-rendering:geometricPrecision; text-rendering:geometricPrecision; image-rendering:optimizeQuality; fill-rule:evenodd; clip-rule:evenodd" xmlns:xlink="http://www.w3.org/1999/xlink">
<g><path style="opacity:1" fill="#fefefe" d="M -0.5,-0.5 C 208.167,-0.5 416.833,-0.5 625.5,-0.5C 625.5,208.167 625.5,416.833 625.5,625.5C 416.833,625.5 208.167,625.5 -0.5,625.5C -0.5,416.833 -0.5,208.167 -0.5,-0.5 Z"/></g>
<g><path style="opacity:1" fill="#eac2a6" d="M 294.5,108.5 C 292.833,109.167 291.167,109.833 289.5,110.5C 277.664,114.751 266.33,120.085 255.5,126.5C 254.787,129.096 254.787,131.763 255.5,134.5C 254.732,133.737 254.232,132.737 254,131.5C 253.08,122.702 253.747,114.036 256,105.5C 256.707,103.919 257.54,102.419 258.5,101C 269.944,92.7681 282.278,85.7681 295.5,80C 299.2,79.0886 302.867,78.4219 306.5,78C 296.331,85.5056 291.331,95.6723 291.5,108.5C 292.5,108.5 293.5,108.5 294.5,108.5 Z"/></g>
<g><path style="opacity:1" fill="#f2a464" d="M 302.5,119.5 C 299.421,120.304 296.421,121.304 293.5,122.5C 293.665,119.15 293.498,115.817 293,112.5C 292.29,111.027 291.124,110.36 289.5,110.5C 291.167,109.833 292.833,109.167 294.5,108.5C 313.495,100.871 332.995,94.5372 353,89.5C 354.261,89.7591 355.261,90.4258 356,91.5C 358.22,94.54 359.72,97.8733 360.5,101.5C 351.267,103.94 341.934,106.107 332.5,108C 322.255,111.546 312.255,115.379 302.5,119.5 Z"/></g>
<g><path style="opacity:1" fill="#da8a2d" d="M 289.5,110.5 C 291.124,110.36 292.29,111.027 293,112.5C 293.498,115.817 293.665,119.15 293.5,122.5C 280.644,128.004 267.977,134.004 255.5,140.5C 255.5,138.5 255.5,136.5 255.5,134.5C 254.787,131.763 254.787,129.096 255.5,126.5C 266.33,120.085 277.664,114.751 289.5,110.5 Z"/></g>
<g><path style="opacity:1" fill="#e3835e" d="M 351.5,122.5 C 354.572,122.183 357.572,122.516 360.5,123.5C 352.21,125.858 343.877,128.024 335.5,130C 329.656,131.759 324.323,134.259 319.5,137.5C 320.573,135.347 320.573,133.347 319.5,131.5C 330.092,128.509 340.758,125.509 351.5,122.5 Z"/></g>
<g><path style="opacity:1" fill="#e8c0a5" d="M 302.5,119.5 C 300.615,121.311 298.281,122.478 295.5,123C 294.978,123.561 294.645,124.228 294.5,125C 296.256,128.758 297.922,132.591 299.5,136.5C 299.957,137.298 300.624,137.631 301.5,137.5C 288.331,143.113 275.331,149.113 262.5,155.5C 260.876,155.64 259.71,154.973 259,153.5C 258.128,149.057 256.962,144.724 255.5,140.5C 267.977,134.004 280.644,128.004 293.5,122.5C 296.421,121.304 299.421,120.304 302.5,119.5 Z"/></g>
<g><path style="opacity:1" fill="#f2a262" d="M 361.5,194.5 C 359.435,194.483 357.435,194.15 355.5,193.5C 351.5,192.167 347.5,192.167 343.5,193.5C 339.408,195.963 335.241,198.296 331,200.5C 324.251,199.238 319.417,195.572 316.5,189.5C 314.676,184.675 312.676,180.008 310.5,175.5C 309.383,171.705 308.717,167.705 308.5,163.5C 307.784,158.659 309.117,154.659 312.5,151.5C 315.358,147.117 317.692,142.45 319.5,137.5C 324.323,134.259 329.656,131.759 335.5,130C 343.877,128.024 352.21,125.858 360.5,123.5C 357.572,122.516 354.572,122.183 351.5,122.5C 354.876,120.918 358.542,120.251 362.5,120.5C 363.972,133.472 365.139,146.472 366,159.5C 369.702,166.558 372.535,173.892 374.5,181.5C 374.949,184.637 373.949,187.137 371.5,189C 368.464,191.006 365.131,191.84 361.5,191.5C 361.5,192.5 361.5,193.5 361.5,194.5 Z"/></g>
<g><path style="opacity:1" fill="#9c2d1e" d="M 348.5,139.5 C 354.037,139.034 356.37,141.367 355.5,146.5C 345.835,149.96 335.835,151.626 325.5,151.5C 325.561,149.408 326.561,147.908 328.5,147C 335.169,144.151 341.836,141.651 348.5,139.5 Z"/></g>
<g><path style="opacity:1" fill="#a2725b" d="M 312.5,151.5 C 309.117,154.659 307.784,158.659 308.5,163.5C 307.194,160.313 307.194,156.98 308.5,153.5C 309.622,152.37 310.956,151.703 312.5,151.5 Z"/></g>
<g><path style="opacity:1" fill="#cf9365" d="M 351.5,162.5 C 350.78,165.06 349.113,166.893 346.5,168C 343.242,168.616 340.242,168.283 337.5,167C 338.71,168.039 339.71,169.206 340.5,170.5C 336.907,169.57 335.241,167.237 335.5,163.5C 338.159,164.485 340.826,165.485 343.5,166.5C 347.424,166.299 347.424,165.799 343.5,165C 345.134,164.506 346.801,164.34 348.5,164.5C 348.5,163.5 348.5,162.5 348.5,161.5C 349.791,161.263 350.791,161.596 351.5,162.5 Z"/></g>
<g><path style="opacity:1" fill="#150b07" d="M 351.5,162.5 C 351.5,163.833 351.5,165.167 351.5,166.5C 350.636,167.688 349.636,168.855 348.5,170C 345.854,170.497 343.187,170.664 340.5,170.5C 339.71,169.206 338.71,168.039 337.5,167C 340.242,168.283 343.242,168.616 346.5,168C 349.113,166.893 350.78,165.06 351.5,162.5 Z"/></g>
<g><path style="opacity:1" fill="#b78866" d="M 351.5,166.5 C 351.703,168.39 351.037,169.89 349.5,171C 346.304,171.805 343.304,171.638 340.5,170.5C 343.187,170.664 345.854,170.497 348.5,170C 349.636,168.855 350.636,167.688 351.5,166.5 Z"/></g>
<g><path style="opacity:1" fill="#cf9575" d="M 310.5,175.5 C 312.676,180.008 314.676,184.675 316.5,189.5C 313.157,185.49 311.157,180.824 310.5,175.5 Z"/></g>
<g><path style="opacity:1" fill="#2e1b3b" d="M 319.5,131.5 C 320.573,133.347 320.573,135.347 319.5,137.5C 317.692,142.45 315.358,147.117 312.5,151.5C 310.956,151.703 309.622,152.37 308.5,153.5C 307.194,156.98 307.194,160.313 308.5,163.5C 308.717,167.705 309.383,171.705 310.5,175.5C 311.157,180.824 313.157,185.49 316.5,189.5C 319.417,195.572 324.251,199.238 331,200.5C 335.241,198.296 339.408,195.963 343.5,193.5C 347.521,194.625 351.521,194.625 355.5,193.5C 357.435,194.15 359.435,194.483 361.5,194.5C 359.433,197.869 358.1,201.536 357.5,205.5C 356.691,207.292 356.191,209.292 356,211.5C 355.667,210.833 355.333,210.167 355,209.5C 354.737,214.005 353.737,218.339 352,222.5C 351.25,223.126 350.416,223.626 349.5,224C 350.516,224.519 351.182,225.353 351.5,226.5C 350.408,228.601 349.408,230.768 348.5,233C 344.029,234.072 339.529,234.905 335,235.5C 329.254,233.419 323.754,231.085 318.5,228.5C 316.031,227.431 313.698,226.098 311.5,224.5C 305.794,219.396 300.794,213.73 296.5,207.5C 294.688,202.059 292.688,196.726 290.5,191.5C 290.216,189.585 290.549,187.919 291.5,186.5C 293.527,186.662 295.527,186.495 297.5,186C 298.056,185.617 298.389,185.117 298.5,184.5C 301.919,181.138 303.252,176.971 302.5,172C 303.127,164.257 300.46,157.923 294.5,153C 288.505,151.496 284.505,153.663 282.5,159.5C 281.662,159.842 281.328,160.508 281.5,161.5C 278.83,170.079 280.83,177.412 287.5,183.5C 287.5,183.833 287.5,184.167 287.5,184.5C 286.793,189.206 284.46,192.873 280.5,195.5C 276.901,196.344 273.234,196.677 269.5,196.5C 270.498,190.188 270.998,183.854 271,177.5C 267.867,170.242 265.034,162.909 262.5,155.5C 275.331,149.113 288.331,143.113 301.5,137.5C 307.438,135.298 313.438,133.298 319.5,131.5 Z"/></g>
<g><path style="opacity:1" fill="#f4a260" d="M 298.5,184.5 C 298.389,185.117 298.056,185.617 297.5,186C 295.527,186.495 293.527,186.662 291.5,186.5C 290.329,185.655 288.995,184.989 287.5,184.5C 287.5,184.167 287.5,183.833 287.5,183.5C 285.489,179.97 283.655,176.303 282,172.5C 281.501,168.848 281.335,165.182 281.5,161.5C 281.328,160.508 281.662,159.842 282.5,159.5C 290.39,151.841 296.224,153.175 300,163.5C 300.499,169.157 300.666,174.824 300.5,180.5C 299.448,180.351 298.448,180.517 297.5,181C 298.337,182.011 298.67,183.178 298.5,184.5 Z"/></g>
<g><path style="opacity:1" fill="#d99b73" d="M 298.5,184.5 C 298.67,183.178 298.337,182.011 297.5,181C 298.448,180.517 299.448,180.351 300.5,180.5C 300.666,174.824 300.499,169.157 300,163.5C 296.224,153.175 290.39,151.841 282.5,159.5C 284.505,153.663 288.505,151.496 294.5,153C 300.46,157.923 303.127,164.257 302.5,172C 303.252,176.971 301.919,181.138 298.5,184.5 Z"/></g>
<g><path style="opacity:1" fill="#cc9678" d="M 281.5,161.5 C 281.335,165.182 281.501,168.848 282,172.5C 283.655,176.303 285.489,179.97 287.5,183.5C 280.83,177.412 278.83,170.079 281.5,161.5 Z"/></g>
<g><path style="opacity:1" fill="#ca5139" d="M 293.5,178.5 C 291.107,175.594 291.274,172.594 294,169.5C 294.497,166.854 294.664,164.187 294.5,161.5C 291.921,161.394 289.588,162.061 287.5,163.5C 288.892,159.199 291.725,157.866 296,159.5C 296.986,166.218 296.153,172.551 293.5,178.5 Z"/></g>
<g><path style="opacity:1" fill="#ea815b" d="M 293.5,178.5 C 291.61,178.703 290.11,178.037 289,176.5C 288.272,173.77 288.438,171.103 289.5,168.5C 288.05,167.15 287.383,165.484 287.5,163.5C 289.588,162.061 291.921,161.394 294.5,161.5C 294.664,164.187 294.497,166.854 294,169.5C 291.274,172.594 291.107,175.594 293.5,178.5 Z"/></g>
<g><path style="opacity:1" fill="#54292b" d="M 343.5,193.5 C 347.5,192.167 351.5,192.167 355.5,193.5C 351.521,194.625 347.521,194.625 343.5,193.5 Z"/></g>
<g><path style="opacity:1" fill="#934048" d="M 290.5,191.5 C 292.688,196.726 294.688,202.059 296.5,207.5C 293.148,202.79 291.148,197.457 290.5,191.5 Z"/></g>
<g><path style="opacity:1" fill="#ac4b48" d="M 280.5,195.5 C 279.942,196.79 278.942,197.623 277.5,198C 274.518,198.498 271.518,198.665 268.5,198.5C 268.957,201.406 269.957,204.072 271.5,206.5C 269.376,204.941 267.709,202.941 266.5,200.5C 267.035,198.739 268.035,197.406 269.5,196.5C 273.234,196.677 276.901,196.344 280.5,195.5 Z"/></g>
<g><path style="opacity:1" fill="#cc473b" d="M 287.5,184.5 C 288.995,184.989 290.329,185.655 291.5,186.5C 290.549,187.919 290.216,189.585 290.5,191.5C 291.148,197.457 293.148,202.79 296.5,207.5C 300.794,213.73 305.794,219.396 311.5,224.5C 309.863,226.475 308.196,228.475 306.5,230.5C 305.833,230.833 305.167,231.167 304.5,231.5C 296.062,227.445 288.062,222.612 280.5,217C 276.915,213.922 273.915,210.422 271.5,206.5C 269.957,204.072 268.957,201.406 268.5,198.5C 271.518,198.665 274.518,198.498 277.5,198C 278.942,197.623 279.942,196.79 280.5,195.5C 284.46,192.873 286.793,189.206 287.5,184.5 Z"/></g>
<g><path style="opacity:1" fill="#e08466" d="M 347.5,197.5 C 349.857,197.337 352.19,197.503 354.5,198C 355.428,198.388 356.095,199.055 356.5,200C 354.138,206.239 349.805,208.739 343.5,207.5C 342.353,205.235 342.186,202.902 343,200.5C 344.652,199.601 346.152,198.601 347.5,197.5 Z"/></g>
<g><path style="opacity:1" fill="#fafcfc" d="M 259.5,220.5 C 270.366,237.507 285.866,247.507 306,250.5C 309.987,272.647 311.487,294.981 310.5,317.5C 303.021,300.588 296.187,283.255 290,265.5C 283.248,249.91 271.415,241.576 254.5,240.5C 253.997,233.178 255.664,226.512 259.5,220.5 Z"/></g>
<g><path style="opacity:1" fill="#271d31" d="M 357.5,205.5 C 357.665,215.867 354.999,225.367 349.5,234C 337.98,238.365 327.647,236.532 318.5,228.5C 323.754,231.085 329.254,233.419 335,235.5C 339.529,234.905 344.029,234.072 348.5,233C 349.408,230.768 350.408,228.601 351.5,226.5C 351.182,225.353 350.516,224.519 349.5,224C 350.416,223.626 351.25,223.126 352,222.5C 353.737,218.339 354.737,214.005 355,209.5C 355.333,210.167 355.667,210.833 356,211.5C 356.191,209.292 356.691,207.292 357.5,205.5 Z"/></g>
<g><path style="opacity:1" fill="#8f9e9e" d="M 304.5,231.5 C 305.167,231.167 305.833,230.833 306.5,230.5C 307.694,233.018 308.86,233.018 310,230.5C 311.58,233.972 311.913,237.638 311,241.5C 309.16,243.681 307.993,246.181 307.5,249C 309.155,257.098 310.322,265.265 311,273.5C 311.5,291.164 311.667,308.83 311.5,326.5C 310.523,323.713 310.19,320.713 310.5,317.5C 311.487,294.981 309.987,272.647 306,250.5C 285.866,247.507 270.366,237.507 259.5,220.5C 258.108,217.993 257.108,215.327 256.5,212.5C 256.748,207.84 258.748,204.007 262.5,201C 263.167,200.333 263.833,200.333 264.5,201C 258.004,206.126 256.837,212.292 261,219.5C 270.271,233.963 283.271,242.963 300,246.5C 307.725,246.034 310.892,242.034 309.5,234.5C 307.604,233.725 305.937,232.725 304.5,231.5 Z"/></g>
<g><path style="opacity:1" fill="#abb8b9" d="M 256.5,212.5 C 257.108,215.327 258.108,217.993 259.5,220.5C 255.664,226.512 253.997,233.178 254.5,240.5C 271.415,241.576 283.248,249.91 290,265.5C 296.187,283.255 303.021,300.588 310.5,317.5C 310.19,320.713 310.523,323.713 311.5,326.5C 314.284,328.553 313.951,330.219 310.5,331.5C 309.676,328.215 309.176,324.882 309,321.5C 300.054,300.942 290.054,280.942 279,261.5C 271.203,251.35 261.036,247.517 248.5,250C 236.361,256.113 231.527,265.947 234,279.5C 250.48,312.65 272.313,341.817 299.5,367C 305.6,371.298 311.934,371.632 318.5,368C 344.06,354.398 368.726,339.565 392.5,323.5C 393.5,324.833 394.5,326.167 395.5,327.5C 395.5,326.5 395.5,325.5 395.5,324.5C 397.612,323.56 399.612,322.394 401.5,321C 402.635,320.251 403.635,320.417 404.5,321.5C 406,324.5 407.5,327.5 409,330.5C 409.749,331.635 409.583,332.635 408.5,333.5C 387.577,345.462 366.243,356.628 344.5,367C 339.707,369.557 334.707,370.057 329.5,368.5C 323.701,372.484 317.534,375.817 311,378.5C 310.333,387.167 310.333,395.833 311,404.5C 312.333,406.5 313.667,408.5 315,410.5C 325.207,419.709 335.707,428.543 346.5,437C 353.132,442.144 360.132,446.644 367.5,450.5C 366.205,451.488 364.872,452.488 363.5,453.5C 351.609,444.855 339.942,435.688 328.5,426C 322.219,419.93 316.053,413.764 310,407.5C 309.5,397.839 309.334,388.172 309.5,378.5C 305.78,378.436 302.114,377.936 298.5,377C 286.16,370.405 275.66,361.572 267,350.5C 261.089,343.011 255.423,335.345 250,327.5C 247.338,354.109 246.004,380.775 246,407.5C 254.355,432.39 264.188,456.723 275.5,480.5C 268.826,480.287 262.159,479.954 255.5,479.5C 250.156,479.666 244.823,479.499 239.5,479C 233.143,477.83 226.81,476.663 220.5,475.5C 218.062,473.737 215.229,472.403 212,471.5C 203.645,411.295 204.978,351.295 216,291.5C 221.627,260.908 235.127,234.575 256.5,212.5 Z"/></g>
<g><path style="opacity:1" fill="#d1d1d1" d="M 389.5,285.5 C 388.949,288.807 388.616,292.14 388.5,295.5C 386.614,296.361 384.78,297.361 383,298.5C 381.869,297.396 381.035,297.729 380.5,299.5C 381.127,300.417 381.461,301.417 381.5,302.5C 380.288,301.77 379.288,300.77 378.5,299.5C 359.926,307.795 341.593,316.462 323.5,325.5C 322.659,300.041 320.826,274.708 318,249.5C 326.838,267.18 336.171,284.513 346,301.5C 360.51,296.085 375.01,290.752 389.5,285.5 Z"/></g>
<g><path style="opacity:1" fill="#cc4939" d="M 448.5,287.5 C 448.103,286.475 447.437,286.308 446.5,287C 440.253,291.729 433.586,295.896 426.5,299.5C 431.24,294.676 436.907,290.176 443.5,286C 445.019,284.649 446.352,283.149 447.5,281.5C 446.635,280.417 445.635,280.251 444.5,281C 437.9,284.605 431.566,288.605 425.5,293C 424.365,293.749 423.365,293.583 422.5,292.5C 430.701,287.565 438.368,281.899 445.5,275.5C 446.59,274.391 446.59,273.391 445.5,272.5C 437.787,276.906 430.12,281.406 422.5,286C 421.241,286.982 419.908,287.315 418.5,287C 426.778,281.722 434.778,276.055 442.5,270C 444.299,268.3 444.632,266.467 443.5,264.5C 445.484,263.844 447.484,263.178 449.5,262.5C 451.707,264.514 454.373,265.514 457.5,265.5C 457.26,270.548 456.094,275.548 454,280.5C 452.629,283.266 450.796,285.599 448.5,287.5 Z"/></g>
<g><path style="opacity:1" fill="#e8815d" d="M 401.5,262.5 C 400.867,268.346 400.867,274.013 401.5,279.5C 402.793,280.645 403.959,280.311 405,278.5C 408.799,272.403 412.965,266.569 417.5,261C 420.862,259.707 422.862,260.707 423.5,264C 421.819,269.384 419.986,274.551 418,279.5C 425.929,273.548 434.429,268.548 443.5,264.5C 444.632,266.467 444.299,268.3 442.5,270C 434.778,276.055 426.778,281.722 418.5,287C 419.908,287.315 421.241,286.982 422.5,286C 430.12,281.406 437.787,276.906 445.5,272.5C 446.59,273.391 446.59,274.391 445.5,275.5C 438.368,281.899 430.701,287.565 422.5,292.5C 423.365,293.583 424.365,293.749 425.5,293C 431.566,288.605 437.9,284.605 444.5,281C 445.635,280.251 446.635,280.417 447.5,281.5C 446.352,283.149 445.019,284.649 443.5,286C 436.907,290.176 431.24,294.676 426.5,299.5C 433.586,295.896 440.253,291.729 446.5,287C 447.437,286.308 448.103,286.475 448.5,287.5C 444.05,294.115 438.384,299.615 431.5,304C 421.875,308.104 412.375,312.604 403,317.5C 401.779,316.728 400.779,315.728 400,314.5C 398.013,307.021 394.18,300.688 388.5,295.5C 388.616,292.14 388.949,288.807 389.5,285.5C 390.472,277.413 391.972,269.413 394,261.5C 396.743,260.083 399.243,260.416 401.5,262.5 Z"/></g>
<g><path style="opacity:1" fill="#f6c5b2" d="M 401.5,262.5 C 402.499,268.005 402.499,273.672 401.5,279.5C 400.867,274.013 400.867,268.346 401.5,262.5 Z"/></g>
<g><path style="opacity:1" fill="#5a5a5a" d="M 381.5,302.5 C 382.906,302.973 383.573,303.973 383.5,305.5C 382.094,305.027 381.427,304.027 381.5,302.5 Z"/></g>
<g><path style="opacity:1" fill="#515255" d="M 383.5,305.5 C 385.085,306.002 385.585,307.002 385,308.5C 383.961,307.756 383.461,306.756 383.5,305.5 Z"/></g>
<g><path style="opacity:1" fill="#5b5a5b" d="M 386.5,310.5 C 388.416,311.665 389.249,313.332 389,315.5C 387.628,314.09 386.795,312.423 386.5,310.5 Z"/></g>
<g><path style="opacity:1" fill="#4d4f50" d="M 395.5,324.5 C 395.5,325.5 395.5,326.5 395.5,327.5C 394.5,326.167 393.5,324.833 392.5,323.5C 391.65,321.506 391.15,319.506 391,317.5C 392.524,319.898 394.024,322.231 395.5,324.5 Z"/></g>
<g><path style="opacity:1" fill="#fdfefd" d="M 363.5,453.5 C 362.5,454.167 361.5,454.833 360.5,455.5C 337.024,469.99 311.358,478.324 283.5,480.5C 280.833,480.5 278.167,480.5 275.5,480.5C 264.188,456.723 254.355,432.39 246,407.5C 246.004,380.775 247.338,354.109 250,327.5C 255.423,335.345 261.089,343.011 267,350.5C 275.66,361.572 286.16,370.405 298.5,377C 302.114,377.936 305.78,378.436 309.5,378.5C 309.334,388.172 309.5,397.839 310,407.5C 316.053,413.764 322.219,419.93 328.5,426C 339.942,435.688 351.609,444.855 363.5,453.5 Z"/></g>
<g><path style="opacity:1" fill="#22292a" d="M 395.5,327.5 C 397.117,329.121 398.284,331.121 399,333.5C 399.667,334.833 399.667,336.167 399,337.5C 397.53,334.256 396.363,330.923 395.5,327.5 Z"/></g>
<g><path style="opacity:1" fill="#aebaba" d="M 259.5,400.5 C 263.174,402.555 267.174,403.722 271.5,404C 280.921,404.679 290.255,404.345 299.5,403C 297.623,405.106 295.29,406.439 292.5,407C 282.743,409.203 273.076,408.869 263.5,406C 261.548,404.588 260.215,402.755 259.5,400.5 Z"/></g>
<g><path style="opacity:1" fill="#9b4315" d="M 425.5,505.5 C 421.426,507.603 417.093,508.936 412.5,509.5C 407.167,509.5 401.833,509.5 396.5,509.5C 395.679,506.359 395.179,503.025 395,499.5C 393.333,496.167 391.667,492.833 390,489.5C 381.385,479.24 372.551,469.24 363.5,459.5C 361.771,458.764 360.771,457.43 360.5,455.5C 361.5,454.833 362.5,454.167 363.5,453.5C 364.872,452.488 366.205,451.488 367.5,450.5C 373.313,446.756 378.98,442.756 384.5,438.5C 402.848,448.019 419.014,460.353 433,475.5C 436.511,484.078 435.844,492.412 431,500.5C 429.296,502.373 427.463,504.04 425.5,505.5 Z"/></g>
<g><path style="opacity:1" fill="#da8a2c" d="M 363.5,459.5 C 372.551,469.24 381.385,479.24 390,489.5C 391.667,492.833 393.333,496.167 395,499.5C 395.179,503.025 395.679,506.359 396.5,509.5C 395.244,512.767 394.077,516.101 393,519.5C 390.999,522.331 388.833,524.997 386.5,527.5C 381.833,528.601 377.166,529.768 372.5,531C 351.169,531.5 329.836,531.667 308.5,531.5C 301.913,529.539 294.913,528.872 287.5,529.5C 286.167,529.5 284.833,529.5 283.5,529.5C 277.021,528.402 270.354,527.735 263.5,527.5C 246.119,527.29 228.786,526.29 211.5,524.5C 211.586,520.143 211.92,515.81 212.5,511.5C 214.447,503.018 216.113,494.351 217.5,485.5C 218.492,485.672 219.158,485.338 219.5,484.5C 220.151,483.909 220.818,483.243 221.5,482.5C 264.519,490.07 307.352,498.737 350,508.5C 351.722,508.389 351.888,507.889 350.5,507C 334.779,502.139 320.112,495.139 306.5,486C 326.207,478.815 345.207,469.981 363.5,459.5 Z"/></g>
<g><path style="opacity:1" fill="#c0681a" d="M 360.5,455.5 C 360.771,457.43 361.771,458.764 363.5,459.5C 345.207,469.981 326.207,478.815 306.5,486C 320.112,495.139 334.779,502.139 350.5,507C 351.888,507.889 351.722,508.389 350,508.5C 307.352,498.737 264.519,490.07 221.5,482.5C 220.818,483.243 220.151,483.909 219.5,484.5C 219.704,481.482 220.037,478.482 220.5,475.5C 226.81,476.663 233.143,477.83 239.5,479C 244.823,479.499 250.156,479.666 255.5,479.5C 261.274,480.897 267.274,481.564 273.5,481.5C 277.018,481.498 280.351,481.165 283.5,480.5C 311.358,478.324 337.024,469.99 360.5,455.5 Z"/></g>
<g><path style="opacity:1" fill="#b38556" d="M 255.5,479.5 C 262.159,479.954 268.826,480.287 275.5,480.5C 278.167,480.5 280.833,480.5 283.5,480.5C 280.351,481.165 277.018,481.498 273.5,481.5C 267.274,481.564 261.274,480.897 255.5,479.5 Z"/></g>
<g><path style="opacity:1" fill="#9c2c21" d="M 217.5,485.5 C 216.113,494.351 214.447,503.018 212.5,511.5C 208.154,511.334 203.821,511.501 199.5,512C 183.421,516.378 167.088,518.711 150.5,519C 149.663,517.989 149.33,516.822 149.5,515.5C 150.596,513.897 151.93,512.397 153.5,511C 162.501,506.168 171.168,500.835 179.5,495C 185.198,488.968 191.198,483.301 197.5,478C 200.167,477.333 202.833,477.333 205.5,478C 209.724,480.272 213.724,482.772 217.5,485.5 Z"/></g>
<g><path style="opacity:1" fill="#d1b194" d="M 396.5,509.5 C 401.833,509.5 407.167,509.5 412.5,509.5C 407.319,510.315 401.986,510.982 396.5,511.5C 395.935,518.7 392.602,524.033 386.5,527.5C 388.833,524.997 390.999,522.331 393,519.5C 394.077,516.101 395.244,512.767 396.5,509.5 Z"/></g>
<g><path style="opacity:1" fill="#d1d0d0" d="M 425.5,505.5 C 444.834,510.171 464.501,514.005 484.5,517C 485.5,517.333 486.5,517.667 487.5,518C 488.833,518.667 488.833,519.333 487.5,520C 428.903,531.482 370.236,542.649 311.5,553.5C 254.147,543.331 196.814,532.831 139.5,522C 137.779,521.261 136.113,520.427 134.5,519.5C 134.709,518.914 135.043,518.414 135.5,518C 140.237,517.301 144.904,516.468 149.5,515.5C 149.33,516.822 149.663,517.989 150.5,519C 167.088,518.711 183.421,516.378 199.5,512C 203.821,511.501 208.154,511.334 212.5,511.5C 211.92,515.81 211.586,520.143 211.5,524.5C 228.786,526.29 246.119,527.29 263.5,527.5C 264.609,528.29 265.942,528.79 267.5,529C 272.823,529.499 278.156,529.666 283.5,529.5C 284.833,529.5 286.167,529.5 287.5,529.5C 288.952,530.302 290.618,530.802 292.5,531C 297.823,531.499 303.156,531.666 308.5,531.5C 329.836,531.667 351.169,531.5 372.5,531C 377.166,529.768 381.833,528.601 386.5,527.5C 392.602,524.033 395.935,518.7 396.5,511.5C 401.986,510.982 407.319,510.315 412.5,509.5C 417.093,508.936 421.426,507.603 425.5,505.5 Z"/></g>
<g><path style="opacity:1" fill="#d7ae76" d="M 263.5,527.5 C 270.354,527.735 277.021,528.402 283.5,529.5C 278.156,529.666 272.823,529.499 267.5,529C 265.942,528.79 264.609,528.29 263.5,527.5 Z"/></g>
<g><path style="opacity:1" fill="#d8be9f" d="M 287.5,529.5 C 294.913,528.872 301.913,529.539 308.5,531.5C 303.156,531.666 297.823,531.499 292.5,531C 290.618,530.802 288.952,530.302 287.5,529.5 Z"/></g>
</svg>
